<?xml version="1.0" standalone="no"?>
<!DOCTYPE svg PUBLIC "-//W3C//DTD SVG 1.1//EN" "http://www.w3.org/Graphics/SVG/1.1/DTD/svg11.dtd" >
<svg xmlns="http://www.w3.org/2000/svg">
<metadata>Generated by IcoMoon</metadata>
<defs>
<font id="icomoon" horiz-adv-x="1024">
<font-face units-per-em="1024" ascent="960" descent="-64" />
<missing-glyph horiz-adv-x="1024" />
<glyph unicode="&#x20;" horiz-adv-x="512" d="" />
<glyph unicode="&#xe900;" glyph-name="crop" d="M810 810.667q34 0 60-26t26-60v-170h-86v170h-170v86h170zM810 128.667v170h86v-170q0-34-26-60t-60-26h-170v86h170zM214 298.667v-170h170v-86h-170q-34 0-60 26t-26 60v170h86zM128 724.667q0 34 26 60t60 26h170v-86h-170v-170h-86v170z" />
<glyph unicode="&#xe901;" glyph-name="store" d="M359.936 839.68c10.988 74.998 74.877 131.932 152.064 131.932s141.076-56.934 151.964-131.098l0.1-0.834 103.936-20.48v-51.2h51.2c56.554 0 102.4-45.846 102.4-102.4v0-614.4c0-56.554-45.846-102.4-102.4-102.4v0h-614.4c-56.554 0-102.4 45.846-102.4 102.4v0 614.4c0 56.32 46.080 102.4 102.4 102.4h51.2v51.2l103.936 20.48zM256 665.6h-51.2v-614.4h614.4v614.4h-51.2v-51.2h-512v51.2zM512 768c28.277 0 51.2 22.923 51.2 51.2s-22.923 51.2-51.2 51.2v0c-28.277 0-51.2-22.923-51.2-51.2s22.923-51.2 51.2-51.2v0z" />
<glyph unicode="&#xe902;" glyph-name="package" d="M469.333 384v-341.333h-256v341.333zM554.667 42.667v341.333h256v-341.333zM320 682.667c-17.664 0-33.621 7.125-45.269 18.731s-18.731 27.605-18.731 45.269 7.125 33.621 18.731 45.269 27.605 18.731 45.269 18.731c26.837 0 48.725-9.515 67.584-25.003 16.043-13.141 29.909-30.677 41.643-50.219 10.283-17.109 18.475-35.029 24.747-51.328zM569.429 682.667c6.869 17.749 15.061 35.669 25.301 52.779 11.733 19.584 25.643 37.077 41.643 50.219 18.901 15.488 40.789 25.003 67.627 25.003 17.664 0 33.621-7.125 45.269-18.731s18.731-27.605 18.731-45.269-7.125-33.621-18.731-45.269-27.605-18.731-45.269-18.731zM469.333 597.334v-128h-341.333v128h192zM838.955 682.667c9.216 19.413 14.379 41.088 14.379 64 0 41.216-16.768 78.635-43.733 105.6s-64.384 43.733-105.6 43.733c-49.493 0-89.984-18.347-121.685-44.331-25.728-21.077-45.568-47.061-60.715-72.277-3.413-5.675-6.613-11.349-9.6-16.981-2.987 5.632-6.187 11.307-9.6 16.981-15.147 25.216-34.987 51.2-60.715 72.277-31.701 25.984-72.192 44.331-121.685 44.331-41.216 0-78.635-16.768-105.6-43.733s-43.733-64.384-43.733-105.6c0-22.912 5.163-44.587 14.379-64h-99.712c-23.552 0-42.667-19.115-42.667-42.667v-213.333c0-23.552 19.115-42.667 42.667-42.667h42.667v-384c0-23.552 19.115-42.667 42.667-42.667h682.667c23.552 0 42.667 19.115 42.667 42.667v384h42.667c23.552 0 42.667 19.115 42.667 42.667v213.333c0 23.552-19.115 42.667-42.667 42.667zM554.667 597.334h341.333v-128h-341.333z" />
<glyph unicode="&#xe903;" glyph-name="arrow-left" d="M896 468.667v-84h-604l152-154-60-60-256 256 256 256 60-60-152-154h604z" />
<glyph unicode="&#xe904;" glyph-name="arrow-right" d="M640 724.667l-60-60 196-196h-690v-84h690l-196-196 60-60 298 298z" />
<glyph unicode="&#xe905;" glyph-name="minus" d="M819.2 460.8c0-28.314-2.458-51.2-30.771-51.2h-552.858c-28.262 0-30.771 22.886-30.771 51.2s2.509 51.2 30.771 51.2h552.909c28.262 0 30.72-22.886 30.72-51.2z" />
<glyph unicode="&#xe906;" glyph-name="play" horiz-adv-x="768" d="M0 960l768-512-768-512z" />
<glyph unicode="&#xe907;" glyph-name="star-line" d="M512 224l288-192-128 320 288 192h-320l-128 320-128-320h-320l288-192-128-320 288 192zM512 263.902l-217.6-145.502 102.4 246.399-230.4 147.2h239.998l105.602 272 105.602-272h240l-230.402-147.2 102.402-246.399-217.602 145.502z" />
<glyph unicode="&#xe908;" glyph-name="shipping" d="M794.624 593.76c-5.952 8.896-15.936 14.24-26.624 14.24h-32c-17.696 0-32-14.304-32-32v-192c0-17.696 14.304-32 32-32h128c17.696 0 32 14.304 32 32v48c0 6.304-1.888 12.512-5.376 17.76l-96 144zM864 384h-128v192h32l96-144v-48zM1007.872 469.248l-128 192c-17.856 26.784-47.744 42.752-79.872 42.752h-128v64c0 52.928-43.072 96-96 96h-480c-52.928 0-96-43.072-96-96v-352c0-52.928 43.072-96 96-96v0-96c0-52.928 43.072-96 96-96h36.544c14.304-55.072 64-96 123.488-96 59.424 0 109.12 40.928 123.424 96h169.024c14.304-55.072 64-96 123.488-96 59.424 0 109.12 40.928 123.424 96h36.608c52.928 0 96 43.072 96 96v192c0 19.008-5.568 37.44-16.128 53.248zM96 384c-17.664 0-32 14.304-32 32v352c0 17.696 14.336 32 32 32h480c17.696 0 32-14.304 32-32v-352c0-17.696-14.304-32-32-32h-480zM352.032 96c-35.36 0-64 28.672-64 64s28.64 64 64 64c35.328 0 64-28.672 64-64s-28.704-64-64-64zM768 96c-35.36 0-64 28.672-64 64s28.64 64 64 64c35.328 0 64-28.672 64-64s-28.672-64-64-64zM960 224c0-17.696-14.304-32-32-32h-36.576c-14.304 55.072-64 96-123.424 96-59.488 0-109.184-40.928-123.488-96h-169.024c-14.304 55.072-64 96-123.424 96-59.488 0-109.184-40.928-123.488-96h-36.576c-17.664 0-32 14.304-32 32v96h416c52.928 0 96 43.072 96 96v224h128c10.688 0 20.672-5.344 26.624-14.24l128-192c3.488-5.248 5.376-11.456 5.376-17.76v-192z" />
<glyph unicode="&#xe909;" glyph-name="star" d="M512 224l-288-192 128 320-288 192h320l128 320 128-320h320l-288-192 128-320z" />
<glyph unicode="&#xe90a;" glyph-name="review" horiz-adv-x="1449" d="M110.277-64h307.2l204.8 409.6v614.4h-614.4v-614.4h307.2l-204.8-409.6zM929.477-64h307.2l204.8 409.6v614.4h-614.4v-614.4h307.2l-204.8-409.6z" />
<glyph unicode="&#xe90b;" glyph-name="send" d="M0 972.8l1024-512-1024-512v1024zM0 563.2v-204.8l512 102.4-512 102.4z" />
<glyph unicode="&#xe90c;" glyph-name="angle-left" d="M360.96 496.998l-36.198-36.198 289.638-289.638 72.397 72.397-217.19 217.242 217.19 217.242-72.397 72.397z" />
<glyph unicode="&#xe90d;" glyph-name="angle-right" d="M663.040 424.602l36.198 36.198-289.638 289.638-72.397-72.397 217.19-217.242-217.19-217.242 72.397-72.397 253.44 253.44z" />
<glyph unicode="&#xe90e;" glyph-name="brand-item1" horiz-adv-x="5120" d="M245.021-31.232c-70.997 0-124.689 19.968-161.075 59.904-36.386 40.823-54.579 98.953-54.579 174.387v53.248h138.445v-63.898c0-60.348 25.293-90.522 75.878-90.522 24.849 0 43.486 7.1 55.91 21.299 13.312 15.087 19.968 39.049 19.968 71.885 0 39.049-8.875 73.216-26.624 102.502-17.749 30.174-50.586 66.116-98.509 107.827-60.348 53.248-102.502 101.171-126.464 143.77-23.962 43.486-35.942 92.298-35.942 146.433 0 73.66 18.637 130.458 55.91 170.394 37.274 40.823 91.409 61.235 162.406 61.235 70.11 0 122.916-20.412 158.415-61.235 36.386-39.936 54.579-97.621 54.579-173.056v-38.605h-138.447v47.923c0 31.949-6.212 55.023-18.637 69.222-12.425 15.087-30.618 22.63-54.579 22.63-48.811 0-73.216-29.73-73.216-89.19 0-33.724 8.875-65.229 26.624-94.517 18.637-29.286 51.917-64.785 99.84-106.496 61.237-53.248 103.392-101.615 126.466-145.101s34.611-94.515 34.611-153.088c0-76.322-19.081-134.895-57.242-175.718-37.274-40.823-91.855-61.235-163.739-61.235zM731.003 780.801h-153.088v133.12h452.608v-133.12h-153.088v-798.721h-146.432v798.721zM1307.631 378.778l-177.050 535.144h155.75l99.84-342.12h2.662l99.84 342.12h142.438l-177.050-535.144v-396.698h-146.432v396.698zM1763.639 913.921h146.432v-798.721h240.947v-133.12h-387.379v931.841zM2287.8 913.921h399.36v-133.12h-252.928v-246.273h201.011v-133.12h-201.011v-286.208h252.928v-133.12h-399.36v931.841zM2837.958 913.921h146.432v-392.705l186.368 392.705h146.432l-174.387-342.12 177.050-589.722h-153.088l-123.802 415.334-58.573-118.477v-296.858h-146.432v931.841zM3455.727 913.921h146.432v-931.841h-146.432v931.841zM3984.725-31.232c-70.11 0-123.802 19.968-161.075 59.904-36.386 39.936-54.579 96.29-54.579 169.062v500.533c0 72.772 18.193 129.126 54.579 169.062 37.274 39.936 90.965 59.904 161.075 59.904s123.358-19.968 159.744-59.904c37.274-39.936 55.91-96.29 55.91-169.062v-98.51h-138.445v107.829c0 57.685-24.405 86.528-73.216 86.528s-73.216-28.843-73.216-86.528v-520.501c0-56.798 24.405-85.197 73.216-85.197s73.216 28.399 73.216 85.197v142.438h138.445v-131.789c0-72.772-18.637-129.126-55.91-169.062-36.386-39.936-89.634-59.904-159.744-59.904zM4354.526 913.921h146.432v-392.705l186.368 392.705h146.432l-174.387-342.12 177.050-589.722h-153.088l-123.802 415.334-58.573-118.477v-296.858h-146.432v931.841zM4978.79 123.187h141.107v-141.107h-141.107v141.107z" />
<glyph unicode="&#xe90f;" glyph-name="brand-item2" horiz-adv-x="13184" d="M159.892 809.763l-96.064 15.808v75.392h276.032l362.367-547.2 68.096-138.626v594.627l-104.576 15.808v75.392h301.568v-75.392l-93.632-15.808v-812.291h-147.136l-378.175 575.171-85.12 160.511v-650.562l122.816-12.16v-72.96h-322.24v72.96l96.064 12.16v727.171zM1568.915-15.904c-132.141 0-231.040 41.344-296.704 124.032s-98.496 195.373-98.496 338.050c0 93.227 17.024 175.105 51.072 245.633 34.854 70.528 83.494 124.842 145.92 162.944 62.419 38.101 134.163 57.152 215.232 57.152 133.76 0 233.875-39.723 300.352-119.168 67.283-78.635 100.928-188.886 100.928-330.753 0-94.037-17.837-177.538-53.504-250.498-34.861-72.147-83.904-128.083-147.136-167.808-63.232-39.718-135.789-59.584-217.664-59.584zM1581.075 837.731c-66.477 0-118.362-32.832-155.648-98.497-37.293-65.663-55.936-162.943-55.936-291.84 0-127.274 17.83-224.149 53.504-290.626 36.48-65.664 88.358-98.496 155.648-98.496 65.664 0 117.139 34.458 154.432 103.36 37.286 69.722 55.936 169.837 55.936 300.354 0 126.465-17.837 220.502-53.504 282.112-35.674 62.422-87.149 93.633-154.432 93.633zM2215.264 70.432l96.064 12.16v727.171l-91.2 17.024v74.176h176.32c15.405 0 32.429 0.405 51.072 1.216s32.832 1.621 42.56 2.432c42.157 3.243 77.011 4.864 104.576 4.864 83.501 0 150.381-8.512 200.64-25.536s86.739-42.966 109.44-77.825c22.701-34.858 34.048-80.661 34.048-137.407 0-55.937-14.995-107.819-44.992-155.649s-73.363-80.661-130.112-98.496c32.429-13.781 61.203-38.912 86.336-75.392 25.133-36.482 51.885-83.906 80.256-142.274 20.269-39.718 35.667-68.499 46.208-86.336 11.347-17.024 22.291-26.752 32.832-29.184l40.128-12.16v-71.744h-206.72c-12.973 0-26.752 12.973-41.344 38.912-13.779 26.752-32.019 68.506-54.72 125.248-26.752 66.477-49.856 118.362-69.312 155.648-19.456 37.293-40.128 60.397-62.016 69.314h-125.248v-304.002l111.872-12.16v-72.96h-386.688v72.96zM2601.952 460.77c46.208 0 82.285 16.619 108.224 49.856s38.912 83.094 38.912 149.568c0 59.179-12.973 102.955-38.912 131.329-25.133 28.373-68.909 42.559-131.328 42.559-22.701 0-42.157-1.215-58.368-3.647-15.405-1.622-25.536-2.432-30.4-2.432v-364.801c9.728-1.621 33.235-2.432 70.528-2.432h41.344zM3333.626 809.763l-97.28 15.808v75.392h648.128l15.808-204.288h-85.12l-40.128 120.384-262.656 10.944v-327.104l169.024 3.647 19.456 99.712h77.824v-294.274h-77.824l-19.456 104.578-169.024 3.648v-342.914l294.272 14.592 70.528 155.648 91.2-25.536-31.616-222.528h-699.2v72.96l96.064 12.16v727.171zM4327.43 809.763l-131.328 15.808v75.392h379.392l144.704-522.88 34.048-142.274 29.184 142.274 143.488 522.88h375.744v-75.392l-132.544-15.808 97.28-725.955 98.496-13.376v-72.96h-387.904v72.96l107.008 12.16-53.504 532.61-23.104 222.529-44.992-187.265-176.32-615.298h-128.896l-179.968 583.683-62.016 218.88-18.24-222.529-46.208-532.61 122.816-12.16v-72.96h-338.048v72.96l102.144 12.16 88.768 727.171zM5946.656-15.904c-132.141 0-231.040 41.344-296.704 124.032s-98.496 195.373-98.496 338.050c0 93.227 17.024 175.105 51.072 245.633 34.861 70.528 83.501 124.842 145.92 162.944s134.163 57.152 215.232 57.152c133.76 0 233.875-39.723 300.352-119.168 67.283-78.635 100.928-188.886 100.928-330.753 0-94.037-17.837-177.538-53.504-250.498-34.861-72.147-83.904-128.083-147.136-167.808-63.232-39.718-135.789-59.584-217.664-59.584zM5958.816 837.731c-66.477 0-118.355-32.832-155.648-98.497-37.293-65.663-55.936-162.943-55.936-291.84 0-127.274 17.837-224.149 53.504-290.626 36.48-65.664 88.365-98.496 155.648-98.496 65.664 0 117.139 34.458 154.432 103.36 37.293 69.722 55.936 169.837 55.936 300.354 0 126.465-17.837 220.502-53.504 282.112-35.667 62.422-87.149 93.633-154.432 93.633zM6690.304 809.763l-96.064 15.808v75.392h276.032l362.368-547.2 68.096-138.626v594.627l-104.576 15.808v75.392h301.568v-75.392l-93.632-15.808v-812.291h-147.136l-378.176 575.171-85.12 160.511v-650.562l122.816-12.16v-72.96h-322.24v72.96l96.064 12.16v727.171zM8246.784 809.763l-89.984 15.808v75.392h369.664v-75.392l-102.144-15.808v-305.217h369.664v305.217l-93.632 15.808v75.392h364.8v-75.392l-92.416-15.808v-727.171l92.416-12.16v-72.96h-366.016v72.96l94.848 12.16v329.539h-369.664v-329.539l102.144-12.16v-72.96h-372.096v72.96l92.416 12.16v727.171zM9595.328 905.826h186.048l280.896-823.234 70.528-12.16v-72.96h-358.72v72.96l91.2 12.16-47.424 158.080h-314.944l-47.424-159.296 98.496-10.944v-72.96h-310.080l-1.216 72.96 72.96 12.16 279.68 823.234zM9679.232 700.322l-21.888 94.848-23.104-96.064-108.224-373.311h267.52l-114.304 374.527zM10407.808 809.763l-96.064 15.808v75.392h276.032l362.368-547.2 68.096-138.626v594.627l-104.576 15.808v75.392h301.568v-75.392l-93.632-15.808v-812.291h-147.136l-378.176 575.171-85.12 160.511v-650.562l122.816-12.16v-72.96h-322.24v72.96l96.064 12.16v727.171zM12078.272-2.528c-12.16 0-27.968 15.405-47.424 46.208-19.456 31.616-46.656 81.472-81.472 149.568-30.016 58.368-55.168 105.389-75.392 141.058-20.288 35.67-39.744 65.259-58.368 88.769l-108.224-124.035v-216.448l104.576-13.376v-71.744h-378.176v72.96l96.064 12.16v727.171l-94.848 15.808v75.392h366.016v-75.392l-93.632-15.808v-396.417l319.808 396.417-99.712 15.808v75.392h328.32v-75.392l-100.928-15.808-235.904-265.089c28.352-25.941 58.368-62.826 89.984-110.655 31.616-47.019 70.080-108.63 115.52-184.835 33.216-55.936 58.368-96.87 75.392-122.816 17.024-25.126 29.952-39.718 38.912-43.776l57.152-13.376v-71.744h-217.664zM12799.424-15.904c-43.776 0-83.072 3.648-117.952 10.944-34.816 7.296-73.728 17.024-116.736 29.184-28.352 8.109-47.424 12.57-57.152 13.376l10.944 224.96h98.496l26.752-156.864c10.56-11.347 29.184-21.478 55.936-30.4 27.584-8.915 58.816-13.376 93.632-13.376 54.336 0 94.848 11.757 121.6 35.264 27.584 24.32 41.344 57.965 41.344 100.928 0 28.378-8.064 52.698-24.32 72.96-16.192 21.082-38.464 39.725-66.88 55.939-28.352 17.024-67.264 36.479-116.736 58.367-67.264 30.806-123.2 67.286-167.808 109.44-43.776 42.966-65.664 100.929-65.664 173.889 0 45.397 11.776 86.336 35.264 122.816 23.552 37.29 58.368 66.474 104.576 87.551 47.040 21.888 104.192 32.832 171.456 32.832 39.744 0 74.624-2.837 104.576-8.512 30.848-5.675 64.064-13.376 99.712-23.104 21.12-5.674 36.928-9.322 47.424-10.944l-7.296-212.799h-97.28l-25.536 149.567c-7.296 7.297-21.888 14.187-43.776 20.673-21.888 7.296-46.208 10.944-72.96 10.944-48.64 0-85.504-11.35-110.656-34.048-24.32-21.888-36.48-51.478-36.48-88.768 0-29.995 8.96-55.936 26.752-77.824 18.688-21.889 40.96-40.534 66.88-55.937 25.984-14.592 66.88-35.669 122.816-63.231 45.44-21.888 84.352-43.371 116.736-64.448 32.448-21.078 60.416-48.641 83.904-82.689 23.552-33.237 35.264-72.552 35.264-117.954 0-44.582-11.328-87.142-34.048-127.68-21.888-40.531-58.368-74.176-109.44-100.928-50.24-26.752-114.688-40.128-193.344-40.128z" />
<glyph unicode="&#xe910;" glyph-name="brand-item3" horiz-adv-x="6720" d="M630.886 851.728c-3.328-31.616-5.824-62.4-7.488-92.352-0.832-29.12-1.248-51.584-1.248-67.392 0-19.968 0.416-38.688 1.248-56.16s1.664-32.864 2.496-46.176h-28.707c-5.821 58.24-13.725 104-23.709 137.28-9.984 34.112-27.456 58.656-52.419 73.632-24.96 14.976-63.645 22.464-116.061 22.464h-78.624c-28.29 0-49.922-2.496-64.898-7.488-14.144-4.16-23.712-13.728-28.704-28.704-4.992-14.144-7.488-36.608-7.488-67.392v-619.008c0-29.952 2.912-52.416 8.736-67.392 6.656-14.976 19.136-24.96 37.44-29.952s44.928-8.32 79.874-9.984v-24.96c-21.632 1.664-49.090 2.496-82.37 2.496-33.28 0.832-66.976 1.248-101.088 1.248-32.448 0-62.816-0.416-91.104-1.248-28.288 0-51.168-0.832-68.64-2.496v24.96c28.288 1.664 49.504 4.992 63.648 9.984 14.976 4.992 24.96 14.976 29.952 29.952s7.488 37.44 7.488 67.392v619.008c0 30.784-2.496 53.248-7.488 67.392-4.992 14.976-14.976 24.96-29.952 29.952-14.144 5.824-35.36 9.152-63.648 9.984v24.96c40.768-0.832 84.448-1.664 131.040-2.496s90.272-1.248 131.040-1.248c41.6 0 74.882 0 99.842 0 38.272 0 81.536 0 129.792 0 49.088 0.832 92.768 2.080 131.040 3.744zM437.446 412.432c0 0 0-4.16 0-12.48s0-12.48 0-12.48h-249.602c0 0 0 4.16 0 12.48s0 12.48 0 12.48h249.602zM461.158 577.168c-3.328-47.424-4.992-83.616-4.992-108.576 0.832-24.96 1.248-47.84 1.248-68.64s0.416-43.68 1.248-68.64c0.832-24.96 2.912-61.152 6.24-108.576h-28.704c-3.328 26.624-7.488 52.416-12.48 77.376-4.16 25.792-14.144 46.592-29.952 62.4-14.976 16.64-40.768 24.96-77.378 24.96v24.96c36.61 0 61.986 9.568 76.13 28.704 14.976 19.136 24.544 41.6 28.704 67.392s7.904 48.672 11.232 68.64h28.704zM852.608-40.592c-54.080 0-93.6 13.312-118.56 39.936-24.128 27.456-36.192 63.648-36.192 108.576 0 34.944 8.32 63.648 24.96 86.112 17.472 23.296 39.52 42.016 66.144 56.16 26.624 14.976 54.496 27.456 83.616 37.44 29.955 10.816 58.24 21.216 84.864 31.2 26.627 9.984 48.256 21.216 64.896 33.696 17.472 12.48 26.208 28.288 26.208 47.424v77.376c0 34.944-5.408 61.568-16.224 79.872-9.984 18.304-23.712 30.368-41.184 36.192-17.472 6.656-37.024 9.984-58.656 9.984-20.8 0-43.264-2.912-67.392-8.736-23.296-5.824-42.016-17.888-56.16-36.192 15.808-3.328 29.536-11.648 41.184-24.96s17.472-30.368 17.472-51.168c0-20.8-6.656-37.44-19.968-49.92-13.312-11.648-30.368-17.472-51.168-17.472-24.128 0-42.016 7.488-53.664 22.464-10.813 15.808-16.224 33.28-16.224 52.416 0 21.632 5.411 39.104 16.224 52.416 10.816 13.312 24.544 25.792 41.184 37.44 19.136 13.312 43.68 24.544 73.632 33.696 30.784 9.984 65.312 14.976 103.584 14.976 34.112 0 63.232-4.16 87.36-12.48 24.128-7.488 44.099-18.72 59.904-33.696 21.632-19.968 35.776-44.512 42.432-73.632 6.656-28.288 9.987-62.4 9.987-102.336v-346.944c0-19.968 2.909-34.944 8.733-44.928 5.824-9.152 15.808-13.728 29.952-13.728 11.648 0 21.632 2.496 29.955 7.488 9.149 4.992 17.885 11.232 26.208 18.72l13.725-21.216c-17.472-13.312-34.112-24.544-49.917-33.696-15.808-8.32-37.027-12.48-63.651-12.48-43.264 0-71.965 11.232-86.112 33.696-14.144 22.464-21.216 48.256-21.216 77.376-26.624-44.096-56.992-73.632-91.104-88.608-33.277-14.976-68.224-22.464-104.832-22.464zM907.523 9.328c24.96 0 49.501 7.072 73.629 21.216 24.128 14.976 46.592 39.52 67.392 73.632v244.608c-12.48-18.304-32.029-32.864-58.656-43.68-25.792-10.816-52.829-22.88-81.12-36.192-27.456-12.48-51.168-29.952-71.136-52.416-19.968-21.632-29.952-52.832-29.952-93.6 0-38.272 9.568-66.976 28.704-86.112 19.136-18.304 42.848-27.456 71.139-27.456zM1530.333 628.336c33.28 0 61.568-5.408 84.864-16.224s40.352-20.8 51.168-29.952c27.456-22.464 44.096-7.488 49.92 44.928h28.704c-1.664-23.296-2.912-51.168-3.744-83.616-0.832-31.616-1.248-74.464-1.248-128.544h-28.704c-4.992 30.784-13.728 60.736-26.208 89.856-11.648 29.12-29.12 52.832-52.416 71.136-23.296 19.136-53.664 28.704-91.104 28.704-29.12 0-53.664-8.32-73.632-24.96-19.136-15.808-28.704-39.52-28.704-71.136 0-24.96 7.488-46.592 22.464-64.896 14.976-17.472 34.528-34.112 58.656-49.92 24.128-14.976 50.336-31.616 78.624-49.92 47.424-30.784 87.776-61.984 121.056-93.6s49.92-73.216 49.92-124.8c0-38.272-9.984-70.304-29.952-96.096s-46.176-45.344-78.624-58.656c-31.616-13.312-66.56-19.968-104.832-19.968-18.304 0-35.776 1.664-52.416 4.992-15.808 2.496-31.2 6.656-46.176 12.48-8.32 4.16-17.056 9.152-26.208 14.976-8.32 5.824-16.64 12.064-24.96 18.72s-15.808 6.24-22.464-1.248c-6.656-6.656-11.648-20.384-14.976-41.184h-28.704c1.664 26.624 2.912 59.072 3.744 97.344s1.248 89.024 1.248 152.256h28.704c5.824-46.592 14.144-87.36 24.96-122.304s27.872-62.4 51.168-82.368c23.296-19.136 55.744-28.704 97.344-28.704 24.96 0 49.504 8.736 73.632 26.208 24.96 17.472 37.44 48.256 37.44 92.352 0 36.608-13.312 66.56-39.936 89.856s-60.32 47.84-101.088 73.632c-29.952 19.136-58.24 38.272-84.864 57.408-25.792 19.136-47.008 40.768-63.648 64.896-15.808 24.128-23.712 53.248-23.712 87.36 0 37.44 8.32 67.808 24.96 91.104 17.472 24.128 40.352 41.6 68.64 52.416 28.288 11.648 58.656 17.472 91.104 17.472zM2061.062 945.328v-466.752c21.632 56.576 51.584 95.68 89.856 117.312 39.104 21.632 79.872 32.448 122.304 32.448 31.616 0 57.824-4.16 78.624-12.48 21.632-8.32 39.52-19.968 53.664-34.944 15.808-16.64 27.040-37.44 33.696-62.4s9.984-58.656 9.984-101.088v-333.216c0-34.944 7.072-58.656 21.216-71.136 14.976-12.48 39.52-18.72 73.632-18.72v-26.208c-14.144 0.832-35.776 1.664-64.896 2.496-29.12 1.664-57.408 2.496-84.864 2.496s-54.496-0.832-81.12-2.496c-25.792-0.832-45.344-1.664-58.656-2.496v26.208c29.952 0 51.168 6.24 63.648 18.72s18.72 36.192 18.72 71.136v360.672c0 25.792-2.080 49.504-6.24 71.136s-13.728 39.104-28.704 52.416c-14.144 13.312-36.192 19.968-66.144 19.968-50.752 0-92.768-21.216-126.048-63.648-32.448-41.6-48.672-95.68-48.672-162.24v-278.304c0-34.944 6.24-58.656 18.72-71.136s33.696-18.72 63.648-18.72v-26.208c-13.312 0.832-33.28 1.664-59.904 2.496-25.792 1.664-52.416 2.496-79.872 2.496s-55.744-0.832-84.864-2.496c-29.12-0.832-50.752-1.664-64.896-2.496v26.208c34.112 0 58.24 6.24 72.384 18.72 14.976 12.48 22.464 36.192 22.464 71.136v711.36c0 37.44-6.656 64.896-19.968 82.368-13.312 18.304-38.272 27.456-74.88 27.456v26.208c26.624-2.496 52.416-3.744 77.376-3.744 24.128 0 47.008 1.248 68.64 3.744 22.464 3.328 42.848 7.904 61.152 13.728zM2741.088 922.864c21.632 0 40.352-7.904 56.16-23.712s23.712-34.528 23.712-56.16c0-21.632-7.904-40.352-23.712-56.16s-34.528-23.712-56.16-23.712c-21.632 0-40.352 7.904-56.16 23.712s-23.712 34.528-23.712 56.16c0 21.632 7.904 40.352 23.712 56.16s34.528 23.712 56.16 23.712zM2805.984 624.592v-540.384c0-34.944 7.072-58.656 21.216-71.136 14.976-12.48 39.52-18.72 73.632-18.72v-26.208c-14.144 0.832-35.776 1.664-64.896 2.496-28.288 1.664-56.992 2.496-86.112 2.496-28.288 0-56.992-0.832-86.112-2.496-29.12-0.832-50.752-1.664-64.896-2.496v26.208c34.112 0 58.24 6.24 72.384 18.72 14.976 12.48 22.464 36.192 22.464 71.136v390.624c0 37.44-6.656 64.896-19.968 82.368-13.312 18.304-38.272 27.456-74.88 27.456v26.208c26.624-2.496 52.416-3.744 77.376-3.744 24.128 0 47.008 1.248 68.64 3.744 22.464 3.328 42.848 7.904 61.152 13.728zM3270.208 628.336c53.248 0 101.088-11.648 143.52-34.944s76.128-59.904 101.088-109.824c25.792-49.92 38.688-114.816 38.688-194.688s-12.896-144.768-38.688-194.688c-24.96-49.088-58.656-85.28-101.088-108.576s-90.272-34.944-143.52-34.944c-52.416 0-100.262 11.648-143.526 34.944-42.432 23.296-76.547 59.488-102.339 108.576-24.957 49.92-37.437 114.816-37.437 194.688s12.48 144.768 37.437 194.688c25.792 49.92 59.907 86.528 102.339 109.824 43.264 23.296 91.11 34.944 143.526 34.944zM3270.208 603.376c-47.424 0-86.534-24.544-117.318-73.632-29.952-49.088-44.931-129.376-44.931-240.864s14.979-191.776 44.931-240.864c30.784-48.256 69.894-72.384 117.318-72.384s86.112 24.128 116.064 72.384c30.784 49.088 46.176 129.376 46.176 240.864s-15.392 191.776-46.176 240.864c-29.952 49.088-68.64 73.632-116.064 73.632zM4067.488 628.336c31.616 0 57.824-4.16 78.624-12.48 21.632-8.32 39.52-19.968 53.664-34.944 15.808-16.64 27.040-37.44 33.696-62.4s9.984-58.656 9.984-101.088v-333.216c0-34.944 7.072-58.656 21.216-71.136 14.976-12.48 39.52-18.72 73.632-18.72v-26.208c-14.144 0.832-35.776 1.664-64.896 2.496-29.12 1.664-57.408 2.496-84.864 2.496s-54.496-0.832-81.12-2.496c-25.792-0.832-45.344-1.664-58.656-2.496v26.208c29.952 0 51.168 6.24 63.648 18.72s18.72 36.192 18.72 71.136v360.672c0 25.792-2.080 49.504-6.24 71.136s-13.728 39.104-28.704 52.416c-14.144 13.312-36.192 19.968-66.144 19.968-52.416 0-94.848-22.048-127.296-66.144-31.616-43.264-47.424-96.928-47.424-160.992v-277.056c0-34.944 6.24-58.656 18.72-71.136s33.696-18.72 63.648-18.72v-26.208c-13.312 0.832-33.28 1.664-59.904 2.496-25.792 1.664-52.416 2.496-79.872 2.496s-55.744-0.832-84.864-2.496c-29.12-0.832-50.752-1.664-64.896-2.496v26.208c34.112 0 58.24 6.24 72.384 18.72 14.976 12.48 22.464 36.192 22.464 71.136v390.624c0 37.44-6.656 64.896-19.968 82.368-13.312 18.304-38.272 27.456-74.88 27.456v26.208c26.624-2.496 52.416-3.744 77.376-3.744 24.128 0 47.008 1.248 68.64 3.744 22.464 3.328 42.848 7.904 61.152 13.728v-147.264c21.632 56.576 51.584 95.68 89.856 117.312 39.104 22.464 79.872 33.696 122.304 33.696zM5391.2 851.728v-24.96c-28.288-0.832-49.92-4.16-64.896-9.984-14.144-4.992-23.712-14.976-28.704-29.952-4.992-14.144-7.488-36.608-7.488-67.392v-619.008c0-29.952 2.496-52.416 7.488-67.392s14.56-24.96 28.704-29.952c14.976-4.992 36.608-8.32 64.896-9.984v-24.96c-19.136 1.664-43.264 2.496-72.384 2.496-28.288 0.832-56.992 1.248-86.112 1.248-32.448 0-62.816-0.416-91.104-1.248-28.288 0-51.168-0.832-68.64-2.496v24.96c28.288 1.664 49.504 4.992 63.648 9.984 14.976 4.992 24.96 14.976 29.952 29.952s7.488 37.44 7.488 67.392v686.4l4.992-3.744-305.76-821.184h-19.968l-314.496 809.952v-658.944c0-29.952 2.496-53.664 7.488-71.136 5.824-16.64 16.64-28.704 32.448-36.192 16.64-6.656 41.184-10.816 73.632-12.48v-24.96c-14.976 1.664-34.528 2.496-58.656 2.496-24.128 0.832-47.008 1.248-68.64 1.248-20.8 0-42.016-0.416-63.648-1.248-20.8 0-38.272-0.832-52.416-2.496v24.96c28.288 1.664 49.504 5.824 63.648 12.48 14.976 7.488 24.96 19.552 29.952 36.192 4.992 17.472 7.488 41.184 7.488 71.136v606.528c0 30.784-2.496 53.248-7.488 67.392-4.992 14.976-14.976 24.96-29.952 29.952-14.144 5.824-35.36 9.152-63.648 9.984v24.96c14.144-0.832 31.616-1.664 52.416-2.496 21.632-0.832 42.848-1.248 63.648-1.248 18.304 0 37.024 0.416 56.16 1.248 19.968 0.832 36.608 1.664 49.92 2.496l283.296-746.304-21.216-9.984 280.8 752.544c9.984 0 19.552 0 28.704 0 9.984 0 19.968 0 29.952 0 29.12 0 57.824 0.416 86.112 1.248 29.12 0.832 53.248 1.664 72.384 2.496zM5641.088-40.592c-54.080 0-93.6 13.312-118.56 39.936-24.128 27.456-36.192 63.648-36.192 108.576 0 34.944 8.32 63.648 24.96 86.112 17.472 23.296 39.52 42.016 66.144 56.16 26.624 14.976 54.496 27.456 83.616 37.44 29.952 10.816 58.24 21.216 84.864 31.2s48.256 21.216 64.896 33.696c17.472 12.48 26.208 28.288 26.208 47.424v77.376c0 34.944-5.408 61.568-16.224 79.872-9.984 18.304-23.712 30.368-41.184 36.192-17.472 6.656-37.024 9.984-58.656 9.984-20.8 0-43.264-2.912-67.392-8.736-23.296-5.824-42.016-17.888-56.16-36.192 15.808-3.328 29.536-11.648 41.184-24.96s17.472-30.368 17.472-51.168c0-20.8-6.656-37.44-19.968-49.92-13.312-11.648-30.368-17.472-51.168-17.472-24.128 0-42.016 7.488-53.664 22.464-10.816 15.808-16.224 33.28-16.224 52.416 0 21.632 5.408 39.104 16.224 52.416s24.544 25.792 41.184 37.44c19.136 13.312 43.68 24.544 73.632 33.696 30.784 9.984 65.312 14.976 103.584 14.976 34.112 0 63.232-4.16 87.36-12.48 24.128-7.488 44.096-18.72 59.904-33.696 21.632-19.968 35.776-44.512 42.432-73.632 6.656-28.288 9.984-62.4 9.984-102.336v-346.944c0-19.968 2.912-34.944 8.736-44.928 5.824-9.152 15.808-13.728 29.952-13.728 11.648 0 21.632 2.496 29.952 7.488 9.152 4.992 17.888 11.232 26.208 18.72l13.728-21.216c-17.472-13.312-34.112-24.544-49.92-33.696-15.808-8.32-37.024-12.48-63.648-12.48-43.264 0-71.968 11.232-86.112 33.696s-21.216 48.256-21.216 77.376c-26.624-44.096-56.992-73.632-91.104-88.608-33.28-14.976-68.224-22.464-104.832-22.464zM5696 9.328c24.96 0 49.504 7.072 73.632 21.216 24.128 14.976 46.592 39.52 67.392 73.632v244.608c-12.48-18.304-32.032-32.864-58.656-43.68-25.792-10.816-52.832-22.88-81.12-36.192-27.456-12.48-51.168-29.952-71.136-52.416-19.968-21.632-29.952-52.832-29.952-93.6 0-38.272 9.568-66.976 28.704-86.112 19.136-18.304 42.848-27.456 71.136-27.456zM6323.808 610.864v-26.208c-15.808 0-29.12-3.744-39.936-11.232s-12.064-17.888-3.744-31.2l333.216-485.472c14.144-20.8 26.624-35.776 37.44-44.928 10.816-8.32 24.128-14.144 39.936-17.472v-26.208c-8.32 0.832-21.216 1.664-38.688 2.496-16.64 1.664-33.28 2.496-49.92 2.496-25.792 0-53.664-0.832-83.616-2.496-29.12-0.832-50.336-1.664-63.648-2.496v26.208c16.64 0 30.368 3.744 41.184 11.232 10.816 8.32 11.648 18.72 2.496 31.2l-333.216 485.472c-16.64 24.128-29.952 39.936-39.936 47.424-9.984 8.32-22.464 13.312-37.44 14.976v26.208c8.32-0.832 21.216-2.080 38.688-3.744 17.472-0.832 34.112-1.248 49.92-1.248 26.624 0 54.496 0.416 83.616 1.248 29.12 1.664 50.336 2.912 63.648 3.744zM6357.504 293.872c0 0 1.664-5.824 4.992-17.472 4.16-10.816 6.24-16.224 6.24-16.224l-103.584-134.784c-21.632-28.288-33.28-52-34.944-71.136-0.832-19.136 7.072-33.696 23.712-43.68 16.64-9.152 39.52-14.976 68.64-17.472v-24.96c-14.144 0.832-29.952 1.248-47.424 1.248-17.472 0.832-34.528 1.248-51.168 1.248-15.808 0.832-30.368 1.248-43.68 1.248-36.608 0-68.224-1.248-94.848-3.744v24.96c15.808 1.664 32.032 8.736 48.672 21.216 17.472 13.312 37.856 35.36 61.152 66.144l162.24 213.408zM6665.76 610.864v-24.96c-15.808-1.664-33.28-9.984-52.416-24.96-18.304-14.144-37.44-34.944-57.408-62.4l-143.52-198.432c0 0-1.664 5.408-4.992 16.224s-4.992 16.224-4.992 16.224l97.344 136.032c27.456 39.104 39.52 67.392 36.192 84.864-2.496 18.304-25.792 29.12-69.888 32.448v24.96c21.632-0.832 39.52-1.664 53.664-2.496 14.976-0.832 32.032-1.248 51.168-1.248 37.44 0 69.056 1.248 94.848 3.744z" />
<glyph unicode="&#xe911;" glyph-name="brand-item4" horiz-adv-x="5120" d="M97.521 892.787l165.376-565.306 167.539 495.048h57.287l166.457-495.048 190.236 565.306h94.037l-239.957-679.88h-89.714l-148.082 435.598-153.486-435.598h-89.715l-215.097 679.88h95.118zM1180.925 742.543c72.061 0 130.068-23.419 174.023-70.259 44.678-46.837 67.015-113.852 67.015-201.045 0-86.471-22.337-153.125-67.015-199.964-43.955-46.837-101.962-70.258-174.023-70.258-72.058 0-130.426 23.421-175.104 70.258-43.955 46.839-65.934 113.493-65.934 199.964 0 87.194 21.979 154.209 65.934 201.045 44.678 46.839 103.046 70.259 175.104 70.259zM1335.492 471.239c0 61.972-12.971 110.251-38.912 144.839-25.941 35.311-64.131 52.964-114.574 52.964-49.721 0-87.91-17.653-114.574-52.964-26.661-34.588-39.993-82.867-39.993-144.839 0-61.249 12.612-109.528 37.831-144.839 25.222-34.588 62.692-51.883 112.412-51.883 50.443 0 89.355 17.294 116.736 51.883 27.383 35.311 41.074 83.59 41.074 144.839zM1738.556 742.543c72.058 0 130.065-23.419 174.023-70.259 44.675-46.837 67.015-113.852 67.015-201.045 0-86.471-22.34-153.125-67.015-199.964-43.958-46.837-101.965-70.258-174.023-70.258-72.061 0-130.426 23.421-175.104 70.258-43.955 46.839-65.934 113.493-65.934 199.964 0 87.194 21.979 154.209 65.934 201.045 44.678 46.839 103.043 70.259 175.104 70.259zM1893.123 471.239c0 61.972-12.971 110.251-38.912 144.839-25.941 35.311-64.134 52.964-114.574 52.964-49.721 0-87.913-17.653-114.574-52.964-26.661-34.588-39.993-82.867-39.993-144.839 0-61.249 12.609-109.528 37.831-144.839 25.219-34.588 62.692-51.883 112.412-51.883 50.441 0 89.353 17.294 116.736 51.883 27.383 35.311 41.074 83.59 41.074 144.839zM2448.589 652.828v296.165h84.309v-736.086h-69.177l-10.809 86.471c-16.572-32.427-38.551-56.926-65.934-73.5-27.381-16.572-57.287-24.86-89.714-24.86-65.573 0-120.698 25.222-165.376 75.662-43.955 50.443-65.934 116.016-65.934 196.722 0 81.428 21.618 146.642 64.853 195.641 43.958 49.001 99.083 73.502 165.376 73.502 67.015 0 117.817-29.905 152.405-89.715zM2301.588 666.88c-41.793 0-77.102-17.653-105.927-52.964-28.103-35.308-42.155-82.506-42.155-141.596 0-59.088 14.413-106.647 43.236-142.677 28.826-35.308 63.414-52.964 103.765-52.964 40.354 0 74.581 13.332 102.684 39.993 28.826 27.383 43.958 63.772 45.397 109.17v84.309c0 48.282-14.052 86.471-42.155 114.574s-63.050 42.155-104.846 42.155zM2615.856 62.663c35.311-27.381 72.42-41.074 111.332-41.074 28.826 0 53.686 14.413 74.581 43.236 15.132 20.898 28.826 52.605 41.074 95.118l15.141 52.964-211.863 516.666h95.118l156.737-411.82 122.14 411.82h86.471l-193.479-619.35c-16.583-52.602-38.571-92.956-65.934-121.060-26.67-28.103-60.897-42.155-102.693-42.155-41.074 0-83.948 12.612-128.626 37.831v77.824zM3210.752 948.993h85.39v-736.086h-85.39v736.086zM3801.202 547.982c0 46.839-9.728 80.347-29.184 100.523-19.456 20.178-47.9 30.266-85.39 30.266-36.75 0-66.645-7.567-89.714-22.7-22.329-14.41-33.508-37.47-33.508-69.177h-94.037c0 79.266 42.524 128.267 127.545 147.002 25.941 5.765 54.044 8.647 84.309 8.647 64.142 0 114.233-16.213 150.244-48.64 36.039-32.428 54.044-81.787 54.044-148.083v-332.914h-73.5l-8.647 86.471c-31.687-65.573-88.974-98.361-171.861-98.361-55.467 0-100.153 15.494-134.030 46.478-33.138 30.987-49.721 69.538-49.721 115.655 0 46.12 18.375 82.148 55.125 108.089 37.49 25.941 83.968 38.912 139.435 38.912 55.495 0 108.459-9.367 158.891-28.103v65.934zM3801.202 428.004c-51.143 14.413-95.829 21.618-134.030 21.618-38.172 0-69.177-6.844-92.956-20.537-23.78-13.69-35.669-35.308-35.669-64.853 0-64.853 36.75-97.28 110.251-97.28 41.813 0 77.483 14.774 107.008 44.316 30.265 30.265 45.397 69.177 45.397 116.736zM4135.822 630.13c33.877 74.943 91.876 112.414 174.023 112.414 61.241 0 108.8-20.177 142.677-60.53 34.588-40.352 51.883-95.478 51.883-165.377v-303.73h-84.309v303.73c0 49.721-11.89 87.194-35.669 112.412-23.068 25.222-56.206 37.831-99.442 37.831s-78.194-17.653-104.846-52.964c-26.652-35.308-40.704-84.309-42.155-147.001v-254.009h-85.39v516.666h73.5l9.728-99.443zM5010.859 652.828v296.165h84.309v-736.086h-69.177l-10.809 86.471c-16.583-32.427-38.571-56.926-65.934-73.5-27.392-16.572-57.287-24.86-89.714-24.86-65.593 0-120.718 25.222-165.376 75.662-43.975 50.443-65.934 116.016-65.934 196.722 0 81.428 21.618 146.642 64.853 195.641 43.947 49.001 99.072 73.502 165.376 73.502 67.015 0 117.817-29.905 152.405-89.715zM4863.858 666.88c-41.813 0-77.113-17.653-105.927-52.964-28.103-35.308-42.155-82.506-42.155-141.596 0-59.088 14.393-106.647 43.236-142.677 28.814-35.308 63.403-52.964 103.765-52.964 40.334 0 74.581 13.332 102.684 39.993 28.814 27.383 43.947 63.772 45.397 109.17v84.309c0 48.282-14.052 86.471-42.155 114.574s-63.061 42.155-104.846 42.155z" />
<glyph unicode="&#xe912;" glyph-name="brand-item5" horiz-adv-x="5213" d="M1224.55 754.869h-509.393v-817.152h-244.084v817.152h-465.175v199.866h1218.653v-199.866zM2768.691 832.693v-772.933l-201.635-122.042h-374.97v201.635h353.745v555.38l-353.745-374.97v309.527l107.892 123.811h-100.817v201.635h346.671l222.86-122.042zM1765.823 197.72l346.671 367.895v-304.221l-100.817-122.042h100.817v-201.635h-367.895l-201.635 122.042v772.933l222.86 122.042h346.671v-201.635h-346.671v-555.38zM3064.553 425.886l201.635 122.042h366.127v-199.866h-351.977v-201.635h344.902v-208.71h-560.687v488.169zM3064.553 634.596v201.635l201.635 122.042h366.127v-201.635h-344.902v-122.042h-222.86zM4286.743-62.282h-567.761v208.71h567.761v-208.71zM4056.809 348.062h-344.902v199.866h344.902v208.71h-344.902v201.635h366.127l208.71-122.042v-366.126l-229.935-122.042zM5173.062 958.273v-1020.555l-201.635 1.769v776.471l-366.145-152.111v229.935l366.145 164.492h201.635z" />
<glyph unicode="&#xe913;" glyph-name="shopping-cart" d="M665.6 102.4c0-56.525 45.773-102.4 102.4-102.4 56.525 0 102.4 45.875 102.4 102.4 0 56.627-45.875 102.4-102.4 102.4-56.627 0-102.4-45.773-102.4-102.4zM153.6 102.4c0-56.525 45.824-102.4 102.4-102.4 56.474 0 102.4 45.875 102.4 102.4 0 56.627-45.926 102.4-102.4 102.4-56.576 0-102.4-45.773-102.4-102.4zM335.206 349.594l566.682 161.894c10.803 3.123 19.712 14.797 19.712 26.112v281.6h-716.8v81.92c0 11.264-9.267 20.48-20.429 20.48h-163.942c-11.213 0-20.429-9.216-20.429-20.48v-81.92h102.4l97.792-458.598 4.608-48.282v-84.429c0-11.213 9.216-20.48 20.48-20.48h675.84c11.264 0 20.48 9.318 20.48 20.48v79.309h-575.898c-58.88 0-60.109 28.211-10.496 42.394z" />
<glyph unicode="&#xe914;" glyph-name="linkedin" d="M256 819.2c0-54.374-36.352-101.171-102.451-101.171-62.208 0-102.349 44.134-102.349 98.509 0 55.808 38.912 105.062 102.4 105.062s101.171-46.592 102.4-102.4zM51.2 0v665.6h204.8v-665.6h-204.8zM358.4 438.067c0 79.104-2.611 145.203-5.222 202.291h184.013l9.114-88.218h3.891c25.907 41.523 89.395 102.4 195.686 102.4 129.638 0 226.918-86.784 226.918-273.51v-381.030h-204.8v351.283c0 81.613-31.078 143.872-102.4 143.872-54.374 0-81.613-44.032-95.898-80.333-5.222-13.005-6.502-31.13-6.502-49.306v-365.517h-204.8v438.067z" />
<glyph unicode="&#xe915;" glyph-name="plus" d="M819.2 460.8c0-28.314-2.458-51.2-30.771-51.2h-225.229v-225.229c0-28.262-22.886-30.771-51.2-30.771s-51.2 2.509-51.2 30.771v225.229h-225.229c-28.262 0-30.771 22.886-30.771 51.2s2.509 51.2 30.771 51.2h225.229v225.229c0 28.314 22.886 30.771 51.2 30.771s51.2-2.458 51.2-30.771v-225.229h225.229c28.314 0 30.771-22.886 30.771-51.2z" />
<glyph unicode="&#xe916;" glyph-name="like-outline" d="M859.008 711.808c37.547-37.589 56.277-86.656 56.277-135.851s-18.773-98.261-56.277-135.765l-347.008-347.008-347.008 347.008c-37.504 37.504-56.235 86.571-56.235 135.808s18.731 98.304 56.235 135.808 86.571 56.235 135.808 56.235 98.304-18.731 135.808-56.235l45.227-45.227c16.683-16.683 43.691-16.683 60.331 0l45.312 45.312c37.504 37.504 86.571 56.235 135.765 56.192s98.261-18.773 135.765-56.277zM919.339 772.139c-54.144 54.144-125.184 81.237-196.096 81.28s-141.952-27.051-196.139-81.195l-15.104-15.147-15.061 15.061c-54.144 54.144-125.227 81.237-196.139 81.237s-141.995-27.093-196.139-81.237-81.237-125.227-81.237-196.139 27.093-141.995 81.237-196.139l377.173-377.173c16.683-16.683 43.691-16.683 60.331 0l377.173 377.173c54.144 54.144 81.237 125.184 81.28 196.096s-27.051 141.952-81.28 196.181z" />
<glyph unicode="&#xe917;" glyph-name="close, trash" d="M512 533.197l-362.035 362.035-72.397-72.397 362.035-362.035-362.035-362.035 72.397-72.397 362.035 362.035 362.035-362.035 72.397 72.397-362.035 362.035 362.035 362.035-72.397 72.397-362.035-362.035z" />
<glyph unicode="&#xe947;" glyph-name="location" d="M512 960c-176.732 0-320-143.268-320-320 0-320 320-704 320-704s320 384 320 704c0 176.732-143.27 320-320 320zM512 448c-106.040 0-192 85.96-192 192s85.96 192 192 192 192-85.96 192-192-85.96-192-192-192z" />
<glyph unicode="&#xe971;" glyph-name="user" d="M576 253.388v52.78c70.498 39.728 128 138.772 128 237.832 0 159.058 0 288-192 288s-192-128.942-192-288c0-99.060 57.502-198.104 128-237.832v-52.78c-217.102-17.748-384-124.42-384-253.388h896c0 128.968-166.898 235.64-384 253.388z" />
<glyph unicode="&#xea90;" glyph-name="facebook" d="M608 768h160v192h-160c-123.514 0-224-100.486-224-224v-96h-128v-192h128v-512h192v512h160l32 192h-192v96c0 17.346 14.654 32 32 32z" />
<glyph unicode="&#xea92;" glyph-name="instagram1" d="M512 867.8c136.8 0 153-0.6 206.8-3 50-2.2 77-10.6 95-17.6 23.8-9.2 41-20.4 58.8-38.2 18-18 29-35 38.4-58.8 7-18 15.4-45.2 17.6-95 2.4-54 3-70.2 3-206.8s-0.6-153-3-206.8c-2.2-50-10.6-77-17.6-95-9.2-23.8-20.4-41-38.2-58.8-18-18-35-29-58.8-38.4-18-7-45.2-15.4-95-17.6-54-2.4-70.2-3-206.8-3s-153 0.6-206.8 3c-50 2.2-77 10.6-95 17.6-23.8 9.2-41 20.4-58.8 38.2-18 18-29 35-38.4 58.8-7 18-15.4 45.2-17.6 95-2.4 54-3 70.2-3 206.8s0.6 153 3 206.8c2.2 50 10.6 77 17.6 95 9.2 23.8 20.4 41 38.2 58.8 18 18 35 29 58.8 38.4 18 7 45.2 15.4 95 17.6 53.8 2.4 70 3 206.8 3zM512 960c-139 0-156.4-0.6-211-3-54.4-2.4-91.8-11.2-124.2-23.8-33.8-13.2-62.4-30.6-90.8-59.2-28.6-28.4-46-57-59.2-90.6-12.6-32.6-21.4-69.8-23.8-124.2-2.4-54.8-3-72.2-3-211.2s0.6-156.4 3-211c2.4-54.4 11.2-91.8 23.8-124.2 13.2-33.8 30.6-62.4 59.2-90.8 28.4-28.4 57-46 90.6-59 32.6-12.6 69.8-21.4 124.2-23.8 54.6-2.4 72-3 211-3s156.4 0.6 211 3c54.4 2.4 91.8 11.2 124.2 23.8 33.6 13 62.2 30.6 90.6 59s46 57 59 90.6c12.6 32.6 21.4 69.8 23.8 124.2 2.4 54.6 3 72 3 211s-0.6 156.4-3 211c-2.4 54.4-11.2 91.8-23.8 124.2-12.6 34-30 62.6-58.6 91-28.4 28.4-57 46-90.6 59-32.6 12.6-69.8 21.4-124.2 23.8-54.8 2.6-72.2 3.2-211.2 3.2v0zM512 711c-145.2 0-263-117.8-263-263s117.8-263 263-263 263 117.8 263 263c0 145.2-117.8 263-263 263zM512 277.4c-94.2 0-170.6 76.4-170.6 170.6s76.4 170.6 170.6 170.6c94.2 0 170.6-76.4 170.6-170.6s-76.4-170.6-170.6-170.6zM846.8 721.4c0-33.91-27.49-61.4-61.4-61.4s-61.4 27.49-61.4 61.4c0 33.91 27.49 61.4 61.4 61.4s61.4-27.49 61.4-61.4z" />
<glyph unicode="&#xea96;" glyph-name="twitter" d="M1024 733.6c-37.6-16.8-78.2-28-120.6-33 43.4 26 76.6 67.2 92.4 116.2-40.6-24-85.6-41.6-133.4-51-38.4 40.8-93 66.2-153.4 66.2-116 0-210-94-210-210 0-16.4 1.8-32.4 5.4-47.8-174.6 8.8-329.4 92.4-433 219.6-18-31-28.4-67.2-28.4-105.6 0-72.8 37-137.2 93.4-174.8-34.4 1-66.8 10.6-95.2 26.2 0-0.8 0-1.8 0-2.6 0-101.8 72.4-186.8 168.6-206-17.6-4.8-36.2-7.4-55.4-7.4-13.6 0-26.6 1.4-39.6 3.8 26.8-83.4 104.4-144.2 196.2-146-72-56.4-162.4-90-261-90-17 0-33.6 1-50.2 3 93.2-59.8 203.6-94.4 322.2-94.4 386.4 0 597.8 320.2 597.8 597.8 0 9.2-0.2 18.2-0.6 27.2 41 29.4 76.6 66.4 104.8 108.6z" />
<glyph unicode="&#xea9d;" glyph-name="youtube" d="M1013.8 652.8c0 0-10 70.6-40.8 101.6-39 40.8-82.6 41-102.6 43.4-143.2 10.4-358.2 10.4-358.2 10.4h-0.4c0 0-215 0-358.2-10.4-20-2.4-63.6-2.6-102.6-43.4-30.8-31-40.6-101.6-40.6-101.6s-10.2-82.8-10.2-165.8v-77.6c0-82.8 10.2-165.8 10.2-165.8s10-70.6 40.6-101.6c39-40.8 90.2-39.4 113-43.8 82-7.8 348.2-10.2 348.2-10.2s215.2 0.4 358.4 10.6c20 2.4 63.6 2.6 102.6 43.4 30.8 31 40.8 101.6 40.8 101.6s10.2 82.8 10.2 165.8v77.6c-0.2 82.8-10.4 165.8-10.4 165.8zM406.2 315.2v287.8l276.6-144.4-276.6-143.4z" />
<glyph unicode="&#xeaa8;" glyph-name="behance" d="M297 754.8c30.2 0 57.4-2.6 82.2-8 24.8-5.2 45.8-14 63.6-26 17.6-12 31.2-28 41.2-48 9.6-19.8 14.4-44.6 14.4-74 0-31.8-7.2-58.2-21.6-79.4-14.6-21.2-35.8-38.4-64.2-52 38.8-11.2 67.4-30.8 86.6-58.6 19.2-28 28.4-61.6 28.4-101.2 0-32-6.2-59.4-18.4-82.6-12.4-23.4-29.2-42.4-49.8-57-20.8-14.8-44.8-25.6-71.6-32.6-26.6-7-54-10.6-82.4-10.6h-305.4v630h297zM279 500.4c24.6 0 45 5.8 61 17.6 16 11.6 23.6 30.8 23.6 57.2 0 14.6-2.6 26.8-7.8 36.2-5.4 9.4-12.4 16.8-21.4 22-8.8 5.4-18.8 9-30.6 11-11.4 2.2-23.4 3.2-35.6 3.2h-129.6v-147.2h140.4zM286.6 232.2c13.6 0 26.6 1.2 38.8 4 12.4 2.8 23.4 7 32.6 13.4 9.2 6.2 17 14.4 22.6 25.2 5.6 10.6 8.2 24.2 8.2 40.8 0 32.4-9.2 55.6-27.4 69.6-18.2 13.8-42.4 20.6-72.4 20.6h-150.4v-173.4h148zM725.2 234.4c18.8-18.4 45.8-27.6 81-27.6 25.2 0 47.2 6.4 65.4 19.2s29.2 26.4 33.4 40.4h110.4c-17.8-55-44.6-94-81.4-117.6-36.2-23.6-80.6-35.6-132-35.6-36 0-68.2 5.8-97.2 17.2-29 11.6-53.2 27.8-73.6 49-19.8 21.2-35.4 46.4-46.4 76-10.8 29.4-16.4 62-16.4 97.2 0 34.2 5.6 66 16.8 95.4 11.4 29.6 27 55 47.8 76.4s45.2 38.4 74 50.8c28.6 12.4 60.2 18.6 95.2 18.6 38.6 0 72.4-7.4 101.4-22.6 28.8-15 52.6-35.2 71.2-60.4s31.8-54.2 40-86.6c8.2-32.4 11-66.2 8.8-101.6h-329.4c0-35.8 12-70 31-88.2zM869 474c-14.8 16.4-40.2 25.4-70.8 25.4-20 0-36.6-3.4-49.8-10.2-13-6.8-23.6-15.2-31.8-25.2-8-10-13.6-20.8-16.8-32.2-3.2-11-5.2-21.2-5.8-30h204c-3 32-14 55.6-29 72.2zM668.4 704h255.4v-62.2h-255.4v62.2z" />
<glyph unicode="&#xf002;" glyph-name="search" horiz-adv-x="951" d="M658.286 475.428c0 141.143-114.857 256-256 256s-256-114.857-256-256 114.857-256 256-256 256 114.857 256 256zM950.857 0c0-40-33.143-73.143-73.143-73.143-19.429 0-38.286 8-51.429 21.714l-196 195.429c-66.857-46.286-146.857-70.857-228-70.857-222.286 0-402.286 180-402.286 402.286s180 402.286 402.286 402.286 402.286-180 402.286-402.286c0-81.143-24.571-161.143-70.857-228l196-196c13.143-13.143 21.143-32 21.143-51.429z" />
<glyph unicode="&#xf004;" glyph-name="like" d="M512 0c-9.143 0-18.286 3.429-25.143 10.286l-356.571 344c-4.571 4-130.286 118.857-130.286 256 0 167.429 102.286 267.429 273.143 267.429 100 0 193.714-78.857 238.857-123.429 45.143 44.571 138.857 123.429 238.857 123.429 170.857 0 273.143-100 273.143-267.429 0-137.143-125.714-252-130.857-257.143l-356-342.857c-6.857-6.857-16-10.286-25.143-10.286z" />
<glyph unicode="&#xf053;" glyph-name="chevron-left" horiz-adv-x="768" d="M669.143 778.857l-303.429-303.429 303.429-303.429c14.286-14.286 14.286-37.143 0-51.429l-94.857-94.857c-14.286-14.286-37.143-14.286-51.429 0l-424 424c-14.286 14.286-14.286 37.143 0 51.429l424 424c14.286 14.286 37.143 14.286 51.429 0l94.857-94.857c14.286-14.286 14.286-37.143 0-51.429z" />
<glyph unicode="&#xf054;" glyph-name="chevron-right" horiz-adv-x="695" d="M632.571 449.714l-424-424c-14.286-14.286-37.143-14.286-51.429 0l-94.857 94.857c-14.286 14.286-14.286 37.143 0 51.429l303.429 303.429-303.429 303.429c-14.286 14.286-14.286 37.143 0 51.429l94.857 94.857c14.286 14.286 37.143 14.286 51.429 0l424-424c14.286-14.286 14.286-37.143 0-51.429z" />
<glyph unicode="&#xf08c;" glyph-name="linkedin-square" horiz-adv-x="878" d="M135.429 142.857h132v396.571h-132v-396.571zM276 661.714c-0.571 38.857-28.571 68.571-73.714 68.571s-74.857-29.714-74.857-68.571c0-37.714 28.571-68.571 73.143-68.571h0.571c46.286 0 74.857 30.857 74.857 68.571zM610.286 142.857h132v227.429c0 121.714-65.143 178.286-152 178.286-70.857 0-102.286-39.429-119.429-66.857h1.143v57.714h-132s1.714-37.143 0-396.571v0h132v221.714c0 11.429 0.571 23.429 4 32 9.714 23.429 31.429 48 68 48 47.429 0 66.286-36 66.286-89.714v-212zM877.714 713.143v-548.571c0-90.857-73.714-164.571-164.571-164.571h-548.571c-90.857 0-164.571 73.714-164.571 164.571v548.571c0 90.857 73.714 164.571 164.571 164.571h548.571c90.857 0 164.571-73.714 164.571-164.571z" />
<glyph unicode="&#xf0c9;" glyph-name="bars" horiz-adv-x="878" d="M877.714 182.857v-73.143c0-20-16.571-36.571-36.571-36.571h-804.571c-20 0-36.571 16.571-36.571 36.571v73.143c0 20 16.571 36.571 36.571 36.571h804.571c20 0 36.571-16.571 36.571-36.571zM877.714 475.428v-73.143c0-20-16.571-36.571-36.571-36.571h-804.571c-20 0-36.571 16.571-36.571 36.571v73.143c0 20 16.571 36.571 36.571 36.571h804.571c20 0 36.571-16.571 36.571-36.571zM877.714 768v-73.143c0-20-16.571-36.571-36.571-36.571h-804.571c-20 0-36.571 16.571-36.571 36.571v73.143c0 20 16.571 36.571 36.571 36.571h804.571c20 0 36.571-16.571 36.571-36.571z" />
<glyph unicode="&#xf0d9;" glyph-name="caret-left" horiz-adv-x="402" d="M365.714 694.857v-512c0-20-16.571-36.571-36.571-36.571-9.714 0-18.857 4-25.714 10.857l-256 256c-6.857 6.857-10.857 16-10.857 25.714s4 18.857 10.857 25.714l256 256c6.857 6.857 16 10.857 25.714 10.857 20 0 36.571-16.571 36.571-36.571z" />
<glyph unicode="&#xf0da;" glyph-name="caret-right" horiz-adv-x="329" d="M329.143 438.857c0-9.714-4-18.857-10.857-25.714l-256-256c-6.857-6.857-16-10.857-25.714-10.857-20 0-36.571 16.571-36.571 36.571v512c0 20 16.571 36.571 36.571 36.571 9.714 0 18.857-4 25.714-10.857l256-256c6.857-6.857 10.857-16 10.857-25.714z" />
</font>
</defs>
</svg>
