<svg width="206" height="16" viewBox="0 0 206 16" fill="none" xmlns="http://www.w3.org/2000/svg">
<path d="M2.49831 2.34746L0.997314 2.10046V0.922465H5.31031L10.9723 9.47247L12.0363 11.6385V2.34746L10.4023 2.10046V0.922465H15.1143V2.10046L13.6513 2.34746V15.0395H11.3523L5.44331 6.05246L4.11331 3.54447V13.7095L6.03231 13.8995V15.0395H0.997314V13.8995L2.49831 13.7095V2.34746Z" fill="#C0BAB9"/>
<path d="M24.5143 15.2485C22.4496 15.2485 20.9043 14.6025 19.8783 13.3105C18.8523 12.0185 18.3393 10.2578 18.3393 8.02847C18.3393 6.5718 18.6053 5.29246 19.1373 4.19046C19.6819 3.08846 20.4419 2.2398 21.4173 1.64446C22.3926 1.04913 23.5136 0.751465 24.7803 0.751465C26.8703 0.751465 28.4346 1.37213 29.4733 2.61346C30.5246 3.84213 31.0503 5.5648 31.0503 7.78147C31.0503 9.2508 30.7716 10.5555 30.2143 11.6955C29.6696 12.8228 28.9033 13.6968 27.9153 14.3175C26.9273 14.9381 25.7936 15.2485 24.5143 15.2485ZM24.7043 1.91046C23.6656 1.91046 22.8549 2.42346 22.2723 3.44947C21.6896 4.47546 21.3983 5.99546 21.3983 8.00947C21.3983 9.99813 21.6769 11.5118 22.2343 12.5505C22.8043 13.5765 23.6149 14.0895 24.6663 14.0895C25.6923 14.0895 26.4966 13.5511 27.0793 12.4745C27.6619 11.3851 27.9533 9.8208 27.9533 7.78147C27.9533 5.80546 27.6746 4.33613 27.1173 3.37347C26.5599 2.39813 25.7556 1.91046 24.7043 1.91046Z" fill="#C0BAB9"/>
<path d="M34.6135 13.8995L36.1145 13.7095V2.34746L34.6895 2.08146V0.922465H37.4445C37.6852 0.922465 37.9512 0.916132 38.2425 0.903465C38.5338 0.890798 38.7555 0.878131 38.9075 0.865465C39.5662 0.814798 40.1108 0.789464 40.5415 0.789464C41.8462 0.789464 42.8912 0.922465 43.6765 1.18846C44.4618 1.45447 45.0318 1.8598 45.3865 2.40447C45.7412 2.94913 45.9185 3.6648 45.9185 4.55146C45.9185 5.42547 45.6842 6.23613 45.2155 6.98347C44.7468 7.7308 44.0692 8.2438 43.1825 8.52247C43.6892 8.7378 44.1388 9.13047 44.5315 9.70047C44.9242 10.2705 45.3422 11.0115 45.7855 11.9235C46.1022 12.5441 46.3428 12.9938 46.5075 13.2725C46.6848 13.5385 46.8558 13.6905 47.0205 13.7285L47.6475 13.9185V15.0395H44.4175C44.2148 15.0395 43.9995 14.8368 43.7715 14.4315C43.5562 14.0135 43.2712 13.3611 42.9165 12.4745C42.4985 11.4358 42.1375 10.6251 41.8335 10.0425C41.5295 9.4598 41.2065 9.0988 40.8645 8.95947H38.9075V13.7095L40.6555 13.8995V15.0395H34.6135V13.8995ZM40.6555 7.80047C41.3775 7.80047 41.9412 7.5408 42.3465 7.02147C42.7518 6.50213 42.9545 5.72313 42.9545 4.68447C42.9545 3.7598 42.7518 3.0758 42.3465 2.63246C41.9538 2.18913 41.2698 1.96747 40.2945 1.96747C39.9398 1.96747 39.6358 1.98646 39.3825 2.02446C39.1418 2.0498 38.9835 2.06246 38.9075 2.06246V7.76247C39.0595 7.7878 39.4268 7.80047 40.0095 7.80047H40.6555Z" fill="#C0BAB9"/>
<path d="M52.0879 2.34746L50.5679 2.10046V0.922465H60.6949L60.9419 4.11446H59.6119L58.9849 2.23346L54.8809 2.06246V7.17346L57.5219 7.11647L57.8259 5.55847H59.0419V10.1565H57.8259L57.5219 8.52247L54.8809 8.46547V13.8235L59.4789 13.5955L60.5809 11.1635L62.0059 11.5625L61.5119 15.0395H50.5869V13.8995L52.0879 13.7095V2.34746Z" fill="#C0BAB9"/>
<path d="M67.6161 2.34746L65.5641 2.10046V0.922465H71.4921L73.7531 9.09247L74.2851 11.3155L74.7411 9.09247L76.9831 0.922465H82.8541V2.10046L80.7831 2.34746L82.3031 13.6905L83.8421 13.8995V15.0395H77.7811V13.8995L79.4531 13.7095L78.6171 5.38747L78.2561 1.91046L77.5531 4.83647L74.7981 14.4505H72.7841L69.9721 5.33046L69.0031 1.91046L68.7181 5.38747L67.9961 13.7095L69.9151 13.8995V15.0395H64.6331V13.8995L66.2291 13.7095L67.6161 2.34746Z" fill="#C0BAB9"/>
<path d="M92.9165 15.2485C90.8518 15.2485 89.3065 14.6025 88.2805 13.3105C87.2545 12.0185 86.7415 10.2578 86.7415 8.02847C86.7415 6.5718 87.0075 5.29246 87.5395 4.19046C88.0842 3.08846 88.8442 2.2398 89.8195 1.64446C90.7948 1.04913 91.9158 0.751465 93.1825 0.751465C95.2725 0.751465 96.8368 1.37213 97.8755 2.61346C98.9268 3.84213 99.4525 5.5648 99.4525 7.78147C99.4525 9.2508 99.1738 10.5555 98.6165 11.6955C98.0718 12.8228 97.3055 13.6968 96.3175 14.3175C95.3295 14.9381 94.1958 15.2485 92.9165 15.2485ZM93.1065 1.91046C92.0678 1.91046 91.2572 2.42346 90.6745 3.44947C90.0918 4.47546 89.8005 5.99546 89.8005 8.00947C89.8005 9.99813 90.0792 11.5118 90.6365 12.5505C91.2065 13.5765 92.0172 14.0895 93.0685 14.0895C94.0945 14.0895 94.8988 13.5511 95.4815 12.4745C96.0642 11.3851 96.3555 9.8208 96.3555 7.78147C96.3555 5.80546 96.0768 4.33613 95.5195 3.37347C94.9622 2.39813 94.1578 1.91046 93.1065 1.91046Z" fill="#C0BAB9"/>
<path d="M104.536 2.34746L103.035 2.10046V0.922465H107.348L113.01 9.47247L114.074 11.6385V2.34746L112.44 2.10046V0.922465H117.152V2.10046L115.689 2.34746V15.0395H113.39L107.481 6.05246L106.151 3.54447V13.7095L108.07 13.8995V15.0395H103.035V13.8995L104.536 13.7095V2.34746Z" fill="#C0BAB9"/>
<path d="M128.856 2.34746L127.45 2.10046V0.922465H133.226V2.10046L131.63 2.34746V7.11647H137.406V2.34746L135.943 2.10046V0.922465H141.643V2.10046L140.199 2.34746V13.7095L141.643 13.8995V15.0395H135.924V13.8995L137.406 13.7095V8.56046H131.63V13.7095L133.226 13.8995V15.0395H127.412V13.8995L128.856 13.7095V2.34746Z" fill="#C0BAB9"/>
<path d="M149.927 0.846465H152.834L157.223 13.7095L158.325 13.8995V15.0395H152.72V13.8995L154.145 13.7095L153.404 11.2395H148.483L147.742 13.7285L149.281 13.8995V15.0395H144.436L144.417 13.8995L145.557 13.7095L149.927 0.846465ZM151.238 4.05747L150.896 2.57547L150.535 4.07647L148.844 9.90946H153.024L151.238 4.05747Z" fill="#C0BAB9"/>
<path d="M162.622 2.34746L161.121 2.10046V0.922465H165.434L171.096 9.47247L172.16 11.6385V2.34746L170.526 2.10046V0.922465H175.238V2.10046L173.775 2.34746V15.0395H171.476L165.567 6.05246L164.237 3.54447V13.7095L166.156 13.8995V15.0395H161.121V13.8995L162.622 13.7095V2.34746Z" fill="#C0BAB9"/>
<path d="M188.723 15.0395C188.533 15.0395 188.286 14.7988 187.982 14.3175C187.678 13.8235 187.253 13.0445 186.709 11.9805C186.24 11.0685 185.847 10.3338 185.531 9.77647C185.214 9.21913 184.91 8.7568 184.619 8.38946L182.928 10.3275V13.7095L184.562 13.9185V15.0395H178.653V13.8995L180.154 13.7095V2.34746L178.672 2.10046V0.922465H184.391V2.10046L182.928 2.34746V8.54147L187.925 2.34746L186.367 2.10046V0.922465H191.497V2.10046L189.92 2.34746L186.234 6.48947C186.677 6.8948 187.146 7.47113 187.64 8.21846C188.134 8.95313 188.735 9.9158 189.445 11.1065C189.964 11.9805 190.357 12.6201 190.623 13.0255C190.889 13.4181 191.091 13.6461 191.231 13.7095L192.124 13.9185V15.0395H188.723Z" fill="#C0BAB9"/>
<path d="M199.991 15.2485C199.307 15.2485 198.693 15.1915 198.148 15.0775C197.604 14.9635 196.996 14.8115 196.324 14.6215C195.881 14.4948 195.583 14.4251 195.431 14.4125L195.602 10.8975H197.141L197.559 13.3485C197.724 13.5258 198.015 13.6841 198.433 13.8235C198.864 13.9628 199.352 14.0325 199.896 14.0325C200.745 14.0325 201.378 13.8488 201.796 13.4815C202.227 13.1015 202.442 12.5758 202.442 11.9045C202.442 11.4611 202.316 11.0811 202.062 10.7645C201.809 10.4351 201.461 10.1438 201.017 9.89046C200.574 9.62446 199.966 9.32047 199.193 8.97847C198.142 8.49713 197.268 7.92713 196.571 7.26847C195.887 6.59713 195.545 5.69146 195.545 4.55146C195.545 3.84213 195.729 3.20246 196.096 2.63246C196.464 2.0498 197.008 1.5938 197.73 1.26447C198.465 0.922465 199.358 0.751465 200.409 0.751465C201.03 0.751465 201.575 0.795798 202.043 0.884464C202.525 0.973131 203.044 1.09346 203.601 1.24547C203.931 1.33413 204.178 1.39113 204.342 1.41647L204.228 4.74146H202.708L202.309 2.40447C202.195 2.29046 201.967 2.1828 201.625 2.08146C201.283 1.96746 200.903 1.91046 200.485 1.91046C199.725 1.91046 199.149 2.0878 198.756 2.44246C198.376 2.78446 198.186 3.2468 198.186 3.82946C198.186 4.29813 198.326 4.70346 198.604 5.04546C198.896 5.38747 199.244 5.6788 199.649 5.91947C200.055 6.14747 200.694 6.4768 201.568 6.90746C202.278 7.24946 202.886 7.58513 203.392 7.91446C203.899 8.2438 204.336 8.67447 204.703 9.20647C205.071 9.7258 205.254 10.3401 205.254 11.0495C205.254 11.7461 205.077 12.4111 204.722 13.0445C204.38 13.6778 203.81 14.2035 203.012 14.6215C202.227 15.0395 201.22 15.2485 199.991 15.2485Z" fill="#C0BAB9"/>
</svg>
