<svg width="150" height="30" viewBox="0 0 150 30" fill="none" xmlns="http://www.w3.org/2000/svg">
<path d="M7.17835 29.04C5.09835 29.04 3.52535 28.455 2.45935 27.285C1.39335 26.089 0.860352 24.386 0.860352 22.176V20.616H4.91635V22.488C4.91635 24.256 5.65735 25.14 7.13935 25.14C7.86735 25.14 8.41335 24.932 8.77735 24.516C9.16735 24.074 9.36235 23.372 9.36235 22.41C9.36235 21.266 9.10235 20.265 8.58235 19.407C8.06235 18.523 7.10035 17.47 5.69635 16.248C3.92835 14.688 2.69335 13.284 1.99135 12.036C1.28935 10.762 0.938352 9.33196 0.938352 7.74596C0.938352 5.58796 1.48435 3.92396 2.57635 2.75396C3.66835 1.55796 5.25435 0.959961 7.33435 0.959961C9.38835 0.959961 10.9354 1.55796 11.9754 2.75396C13.0414 3.92396 13.5744 5.61396 13.5744 7.82396V8.95496H9.51835V7.55096C9.51835 6.61496 9.33635 5.93896 8.97235 5.52296C8.60835 5.08096 8.07535 4.85996 7.37335 4.85996C5.94335 4.85996 5.22835 5.73096 5.22835 7.47296C5.22835 8.46096 5.48835 9.38396 6.00835 10.242C6.55435 11.1 7.52935 12.14 8.93335 13.362C10.7274 14.922 11.9624 16.339 12.6384 17.613C13.3144 18.887 13.6524 20.382 13.6524 22.098C13.6524 24.334 13.0934 26.05 11.9754 27.246C10.8834 28.442 9.28435 29.04 7.17835 29.04Z" fill="#C0BAB9"/>
<path d="M21.4161 5.24996H16.9311V1.34996H30.1911V5.24996H25.7061V28.65H21.4161V5.24996Z" fill="#C0BAB9"/>
<path d="M38.3095 17.028L33.1225 1.34996H37.6855L40.6105 11.373H40.6885L43.6135 1.34996H47.7865L42.5995 17.028V28.65H38.3095V17.028Z" fill="#C0BAB9"/>
<path d="M51.6691 1.34996H55.9591V24.75H63.0181V28.65H51.6691V1.34996Z" fill="#C0BAB9"/>
<path d="M67.0254 1.34996H78.7254V5.24996H71.3154V12.465H77.2044V16.365H71.3154V24.75H78.7254V28.65H67.0254V1.34996Z" fill="#C0BAB9"/>
<path d="M83.1433 1.34996H87.4333V12.855L92.8933 1.34996H97.1833L92.0743 11.373L97.2613 28.65H92.7763L89.1493 16.482L87.4333 19.953V28.65H83.1433V1.34996Z" fill="#C0BAB9"/>
<path d="M101.242 1.34996H105.532V28.65H101.242V1.34996Z" fill="#C0BAB9"/>
<path d="M116.74 29.04C114.686 29.04 113.113 28.455 112.021 27.285C110.955 26.115 110.422 24.464 110.422 22.332V7.66796C110.422 5.53596 110.955 3.88496 112.021 2.71496C113.113 1.54496 114.686 0.959961 116.74 0.959961C118.794 0.959961 120.354 1.54496 121.42 2.71496C122.512 3.88496 123.058 5.53596 123.058 7.66796V10.554H119.002V7.39496C119.002 5.70496 118.287 4.85996 116.857 4.85996C115.427 4.85996 114.712 5.70496 114.712 7.39496V22.644C114.712 24.308 115.427 25.14 116.857 25.14C118.287 25.14 119.002 24.308 119.002 22.644V18.471H123.058V22.332C123.058 24.464 122.512 26.115 121.42 27.285C120.354 28.455 118.794 29.04 116.74 29.04Z" fill="#C0BAB9"/>
<path d="M127.574 1.34996H131.864V12.855L137.324 1.34996H141.614L136.505 11.373L141.692 28.65H137.207L133.58 16.482L131.864 19.953V28.65H127.574V1.34996Z" fill="#C0BAB9"/>
<path d="M145.863 24.516H149.997V28.65H145.863V24.516Z" fill="#C0BAB9"/>
</svg>
