<svg width="112" height="22" viewBox="0 0 112 22" fill="none" xmlns="http://www.w3.org/2000/svg">
<path d="M26.3087 4.40711H15.3647V21.9631H10.1207V4.40711H0.126709V0.113108H26.3087V4.40711Z" fill="#C0BAB9"/>
<path d="M59.4836 2.73511V19.3411L55.1516 21.9631H47.0956V17.6311H54.6956V5.69911L47.0956 13.7551V7.10511L49.4136 4.44511H47.2476V0.113108H54.6956L59.4836 2.73511ZM37.9376 16.3771L45.3856 8.47311V15.0091L43.2196 17.6311H45.3856V21.9631H37.4816L33.1496 19.3411V2.73511L37.9376 0.113108H45.3856V4.44511H37.9376V16.3771Z" fill="#C0BAB9"/>
<path d="M65.84 11.4751L70.172 8.85311H78.038V13.1471H70.476V17.4791H77.886V21.9631H65.84V11.4751ZM65.84 6.99111V2.65911L70.172 0.0371094H78.038V4.36911H70.628V6.99111H65.84ZM92.098 21.9631H79.9V17.4791H92.098V21.9631ZM87.158 13.1471H79.748V8.85311H87.158V4.36911H79.748V0.0371094H87.614L92.098 2.65911V10.5251L87.158 13.1471Z" fill="#C0BAB9"/>
<path d="M111.14 0.0371094V21.9631L106.808 21.9251V5.24311L98.9416 8.51111V3.57111L106.808 0.0371094H111.14Z" fill="#C0BAB9"/>
</svg>
