<svg width="180" height="36" viewBox="0 0 180 36" fill="none" xmlns="http://www.w3.org/2000/svg">
<path d="M3.42847 2.36296L9.24247 22.237L15.1325 4.83296H17.1465L22.9985 22.237L29.6865 2.36296H32.9925L24.5565 26.265H21.4025L16.1965 10.951L10.8005 26.265H7.64647L0.0844727 2.36296H3.42847Z" fill="#C0BAB9"/>
<path d="M41.5169 7.64496C44.0503 7.64496 46.0896 8.4683 47.6349 10.115C49.2056 11.7616 49.9909 14.1176 49.9909 17.183C49.9909 20.223 49.2056 22.5663 47.6349 24.213C46.0896 25.8596 44.0503 26.683 41.5169 26.683C38.9836 26.683 36.9316 25.8596 35.3609 24.213C33.8156 22.5663 33.0429 20.223 33.0429 17.183C33.0429 14.1176 33.8156 11.7616 35.3609 10.115C36.9316 8.4683 38.9836 7.64496 41.5169 7.64496ZM46.9509 17.183C46.9509 15.0043 46.4949 13.307 45.5829 12.091C44.6709 10.8496 43.3283 10.229 41.5549 10.229C39.8069 10.229 38.4643 10.8496 37.5269 12.091C36.5896 13.307 36.1209 15.0043 36.1209 17.183C36.1209 19.3363 36.5643 21.0336 37.4509 22.275C38.3376 23.491 39.6549 24.099 41.4029 24.099C43.1763 24.099 44.5443 23.491 45.5069 22.275C46.4696 21.0336 46.9509 19.3363 46.9509 17.183Z" fill="#C0BAB9"/>
<path d="M61.1211 7.64496C63.6544 7.64496 65.6937 8.4683 67.2391 10.115C68.8097 11.7616 69.5951 14.1176 69.5951 17.183C69.5951 20.223 68.8097 22.5663 67.2391 24.213C65.6937 25.8596 63.6544 26.683 61.1211 26.683C58.5877 26.683 56.5358 25.8596 54.9651 24.213C53.4198 22.5663 52.6471 20.223 52.6471 17.183C52.6471 14.1176 53.4198 11.7616 54.9651 10.115C56.5358 8.4683 58.5877 7.64496 61.1211 7.64496ZM66.5551 17.183C66.5551 15.0043 66.0991 13.307 65.1871 12.091C64.2751 10.8496 62.9324 10.229 61.1591 10.229C59.4111 10.229 58.0684 10.8496 57.1311 12.091C56.1938 13.307 55.7251 15.0043 55.7251 17.183C55.7251 19.3363 56.1684 21.0336 57.0551 22.275C57.9417 23.491 59.2591 24.099 61.0071 24.099C62.7804 24.099 64.1484 23.491 65.1111 22.275C66.0738 21.0336 66.5551 19.3363 66.5551 17.183Z" fill="#C0BAB9"/>
<path d="M86.0832 10.799V0.386963H89.0472V26.265H86.6152L86.2352 23.225C85.6526 24.365 84.8799 25.2263 83.9172 25.809C82.9546 26.3916 81.9032 26.683 80.7632 26.683C78.4579 26.683 76.5199 25.7963 74.9492 24.023C73.4039 22.2496 72.6312 19.9443 72.6312 17.107C72.6312 14.2443 73.3912 11.9516 74.9112 10.229C76.4566 8.5063 78.3946 7.64496 80.7252 7.64496C83.0812 7.64496 84.8672 8.6963 86.0832 10.799ZM80.9152 10.305C79.4459 10.305 78.2046 10.9256 77.1912 12.167C76.2032 13.4083 75.7092 15.0676 75.7092 17.145C75.7092 19.2223 76.2159 20.8943 77.2292 22.161C78.2426 23.4023 79.4586 24.023 80.8772 24.023C82.2959 24.023 83.4992 23.5543 84.4872 22.617C85.5006 21.6543 86.0326 20.375 86.0832 18.779V15.815C86.0832 14.1176 85.5892 12.775 84.6012 11.787C83.6132 10.799 82.3846 10.305 80.9152 10.305Z" fill="#C0BAB9"/>
<path d="M91.9637 31.547C93.2051 32.5096 94.5097 32.991 95.8777 32.991C96.8911 32.991 97.7651 32.4843 98.4997 31.471C99.0317 30.7363 99.5131 29.6216 99.9437 28.127L100.476 26.265L93.0277 8.10096H96.3717L101.882 22.579L106.176 8.10096H109.216L102.414 29.875C101.831 31.7243 101.058 33.143 100.096 34.131C99.1584 35.119 97.9551 35.613 96.4857 35.613C95.0417 35.613 93.5344 35.1696 91.9637 34.283V31.547Z" fill="#C0BAB9"/>
<path d="M112.878 0.386963H115.88V26.265H112.878V0.386963Z" fill="#C0BAB9"/>
<path d="M133.636 14.485C133.636 12.8383 133.294 11.6603 132.61 10.951C131.926 10.2416 130.926 9.88696 129.608 9.88696C128.316 9.88696 127.265 10.153 126.454 10.685C125.669 11.1916 125.276 12.0023 125.276 13.117H121.97C121.97 10.3303 123.465 8.60763 126.454 7.94896C127.366 7.7463 128.354 7.64496 129.418 7.64496C131.673 7.64496 133.434 8.21496 134.7 9.35496C135.967 10.495 136.6 12.2303 136.6 14.561V26.265H134.016L133.712 23.225C132.598 25.5303 130.584 26.683 127.67 26.683C125.72 26.683 124.149 26.1383 122.958 25.049C121.793 23.9596 121.21 22.6043 121.21 20.983C121.21 19.3616 121.856 18.095 123.148 17.183C124.466 16.271 126.1 15.815 128.05 15.815C130.001 15.815 131.863 16.1443 133.636 16.803V14.485ZM133.636 18.703C131.838 18.1963 130.267 17.943 128.924 17.943C127.582 17.943 126.492 18.1836 125.656 18.665C124.82 19.1463 124.402 19.9063 124.402 20.945C124.402 23.225 125.694 24.365 128.278 24.365C129.748 24.365 131.002 23.8456 132.04 22.807C133.104 21.743 133.636 20.375 133.636 18.703Z" fill="#C0BAB9"/>
<path d="M145.4 11.597C146.591 8.9623 148.63 7.64496 151.518 7.64496C153.671 7.64496 155.343 8.3543 156.534 9.77296C157.75 11.1916 158.358 13.1296 158.358 15.587V26.265H155.394V15.587C155.394 13.839 154.976 12.5216 154.14 11.635C153.329 10.7483 152.164 10.305 150.644 10.305C149.124 10.305 147.895 10.9256 146.958 12.167C146.021 13.4083 145.527 15.131 145.476 17.335V26.265H142.474V8.10096H145.058L145.4 11.597Z" fill="#C0BAB9"/>
<path d="M176.163 10.799V0.386963H179.127V26.265H176.695L176.315 23.225C175.732 24.365 174.959 25.2263 173.997 25.809C173.034 26.3916 171.983 26.683 170.843 26.683C168.537 26.683 166.599 25.7963 165.029 24.023C163.483 22.2496 162.711 19.9443 162.711 17.107C162.711 14.2443 163.471 11.9516 164.991 10.229C166.536 8.5063 168.474 7.64496 170.805 7.64496C173.161 7.64496 174.947 8.6963 176.163 10.799ZM170.995 10.305C169.525 10.305 168.284 10.9256 167.271 12.167C166.283 13.4083 165.789 15.0676 165.789 17.145C165.789 19.2223 166.295 20.8943 167.309 22.161C168.322 23.4023 169.538 24.023 170.957 24.023C172.375 24.023 173.579 23.5543 174.567 22.617C175.58 21.6543 176.112 20.375 176.163 18.779V15.815C176.163 14.1176 175.669 12.775 174.681 11.787C173.693 10.799 172.464 10.305 170.995 10.305Z" fill="#C0BAB9"/>
</svg>
