<svg width="210" height="32" viewBox="0 0 210 32" fill="none" xmlns="http://www.w3.org/2000/svg">
<path d="M19.7152 3.3835C19.6112 4.3715 19.5332 5.3335 19.4812 6.2695C19.4552 7.1795 19.4422 7.8815 19.4422 8.3755C19.4422 8.9995 19.4552 9.5845 19.4812 10.1305C19.5072 10.6765 19.5332 11.1575 19.5592 11.5735H18.6621C18.4802 9.7535 18.2332 8.3235 17.9212 7.2835C17.6092 6.2175 17.0632 5.4505 16.2831 4.9825C15.5031 4.5145 14.2942 4.2805 12.6562 4.2805H10.1992C9.31515 4.2805 8.63915 4.3585 8.17115 4.5145C7.72915 4.6445 7.43015 4.9435 7.27415 5.4115C7.11815 5.8535 7.04015 6.5555 7.04015 7.5175V26.8615C7.04015 27.7975 7.13115 28.4995 7.31315 28.9675C7.52115 29.4355 7.91115 29.7475 8.48315 29.9035C9.05515 30.0595 9.88715 30.1635 10.9792 30.2155V30.9955C10.3032 30.9435 9.44515 30.9175 8.40515 30.9175C7.36515 30.8915 6.31215 30.8785 5.24615 30.8785C4.23215 30.8785 3.28315 30.8915 2.39915 30.9175C1.51515 30.9175 0.80015 30.9435 0.25415 30.9955V30.2155C1.13815 30.1635 1.80115 30.0595 2.24315 29.9035C2.71115 29.7475 3.02315 29.4355 3.17915 28.9675C3.33515 28.4995 3.41315 27.7975 3.41315 26.8615V7.5175C3.41315 6.5555 3.33515 5.8535 3.17915 5.4115C3.02315 4.9435 2.71115 4.6315 2.24315 4.4755C1.80115 4.2935 1.13815 4.1895 0.25415 4.1635V3.3835C1.52815 3.4095 2.89315 3.4355 4.34915 3.4615C5.80515 3.4875 7.17015 3.5005 8.44415 3.5005C9.74415 3.5005 10.7842 3.5005 11.5642 3.5005C12.7602 3.5005 14.1122 3.5005 15.6202 3.5005C17.1542 3.4745 18.5192 3.4355 19.7152 3.3835ZM13.6702 17.1115C13.6702 17.1115 13.6702 17.2415 13.6702 17.5015C13.6702 17.7615 13.6702 17.8915 13.6702 17.8915H5.87015C5.87015 17.8915 5.87015 17.7615 5.87015 17.5015C5.87015 17.2415 5.87015 17.1115 5.87015 17.1115H13.6702ZM14.4112 11.9635C14.3072 13.4455 14.2552 14.5765 14.2552 15.3565C14.2812 16.1365 14.2942 16.8515 14.2942 17.5015C14.2942 18.1515 14.3072 18.8665 14.3332 19.6465C14.3592 20.4265 14.4242 21.5575 14.5282 23.0395H13.6312C13.5272 22.2075 13.3972 21.4015 13.2412 20.6215C13.1112 19.8155 12.7992 19.1655 12.3052 18.6715C11.8372 18.1515 11.0312 17.8915 9.88715 17.8915V17.1115C11.0312 17.1115 11.8242 16.8125 12.2662 16.2145C12.7342 15.6165 13.0332 14.9145 13.1632 14.1085C13.2932 13.3025 13.4102 12.5875 13.5142 11.9635H14.4112Z" fill="#C0BAB9"/>
<path d="M26.644 31.2685C24.954 31.2685 23.719 30.8525 22.939 30.0205C22.185 29.1625 21.808 28.0315 21.808 26.6275C21.808 25.5355 22.068 24.6385 22.588 23.9365C23.134 23.2085 23.823 22.6235 24.655 22.1815C25.487 21.7135 26.358 21.3235 27.268 21.0115C28.2041 20.6735 29.088 20.3485 29.92 20.0365C30.7521 19.7245 31.428 19.3735 31.948 18.9835C32.494 18.5935 32.767 18.0995 32.767 17.5015V15.0835C32.767 13.9915 32.598 13.1595 32.26 12.5875C31.948 12.0155 31.519 11.6385 30.973 11.4565C30.427 11.2485 29.816 11.1445 29.14 11.1445C28.49 11.1445 27.788 11.2355 27.034 11.4175C26.306 11.5995 25.721 11.9765 25.279 12.5485C25.773 12.6525 26.202 12.9125 26.566 13.3285C26.93 13.7445 27.112 14.2775 27.112 14.9275C27.112 15.5775 26.904 16.0975 26.488 16.4875C26.072 16.8515 25.539 17.0335 24.889 17.0335C24.135 17.0335 23.576 16.7995 23.212 16.3315C22.8741 15.8375 22.705 15.2915 22.705 14.6935C22.705 14.0175 22.8741 13.4715 23.212 13.0555C23.55 12.6395 23.979 12.2495 24.499 11.8855C25.097 11.4695 25.864 11.1185 26.8 10.8325C27.762 10.5205 28.841 10.3645 30.037 10.3645C31.103 10.3645 32.013 10.4945 32.767 10.7545C33.521 10.9885 34.1451 11.3395 34.639 11.8075C35.315 12.4315 35.757 13.1985 35.965 14.1085C36.173 14.9925 36.2771 16.0585 36.2771 17.3065V28.1485C36.2771 28.7725 36.368 29.2405 36.55 29.5525C36.732 29.8385 37.044 29.9815 37.486 29.9815C37.85 29.9815 38.162 29.9035 38.4221 29.7475C38.708 29.5915 38.981 29.3965 39.2411 29.1625L39.67 29.8255C39.124 30.2415 38.604 30.5925 38.1101 30.8785C37.6161 31.1385 36.953 31.2685 36.121 31.2685C34.769 31.2685 33.8721 30.9175 33.43 30.2155C32.988 29.5135 32.767 28.7075 32.767 27.7975C31.935 29.1755 30.986 30.0985 29.92 30.5665C28.8801 31.0345 27.788 31.2685 26.644 31.2685ZM28.3601 29.7085C29.1401 29.7085 29.907 29.4875 30.661 29.0455C31.415 28.5775 32.117 27.8105 32.767 26.7445V19.1005C32.377 19.6725 31.7661 20.1275 30.934 20.4655C30.128 20.8035 29.2831 21.1805 28.399 21.5965C27.541 21.9865 26.8 22.5325 26.176 23.2345C25.552 23.9105 25.24 24.8855 25.24 26.1595C25.24 27.3555 25.539 28.2525 26.137 28.8505C26.735 29.4225 27.476 29.7085 28.3601 29.7085Z" fill="#C0BAB9"/>
<path d="M47.8229 10.3645C48.8629 10.3645 49.7469 10.5335 50.4749 10.8715C51.2029 11.2095 51.7359 11.5215 52.0739 11.8075C52.9319 12.5095 53.4519 12.0415 53.6339 10.4035H54.5309C54.4789 11.1315 54.4399 12.0025 54.4139 13.0165C54.3879 14.0045 54.3749 15.3435 54.3749 17.0335H53.4779C53.3219 16.0715 53.0489 15.1355 52.6589 14.2255C52.2949 13.3155 51.7489 12.5745 51.0209 12.0025C50.2929 11.4045 49.3439 11.1055 48.1739 11.1055C47.2639 11.1055 46.4969 11.3655 45.8729 11.8855C45.2749 12.3795 44.9759 13.1205 44.9759 14.1085C44.9759 14.8885 45.2099 15.5645 45.6779 16.1365C46.1459 16.6825 46.7569 17.2025 47.5109 17.6965C48.2649 18.1645 49.0839 18.6845 49.9679 19.2565C51.4499 20.2185 52.7109 21.1935 53.7509 22.1815C54.7909 23.1695 55.3109 24.4695 55.3109 26.0815C55.3109 27.2775 54.9989 28.2785 54.3749 29.0845C53.7509 29.8905 52.9319 30.5015 51.9179 30.9175C50.9299 31.3335 49.8379 31.5415 48.6419 31.5415C48.0699 31.5415 47.5239 31.4895 47.0039 31.3855C46.5099 31.3075 46.0289 31.1775 45.5609 30.9955C45.3009 30.8655 45.0279 30.7095 44.7419 30.5275C44.4819 30.3455 44.2219 30.1505 43.9619 29.9425C43.7019 29.7345 43.4679 29.7475 43.2599 29.9815C43.0519 30.1895 42.8959 30.6185 42.7919 31.2685H41.8949C41.9469 30.4365 41.9859 29.4225 42.0119 28.2265C42.0379 27.0305 42.0509 25.4445 42.0509 23.4685H42.9479C43.1299 24.9245 43.3899 26.1985 43.7279 27.2905C44.0659 28.3825 44.5989 29.2405 45.3269 29.8645C46.0549 30.4625 47.0689 30.7615 48.3689 30.7615C49.1489 30.7615 49.9159 30.4885 50.6699 29.9425C51.4499 29.3965 51.8399 28.4345 51.8399 27.0565C51.8399 25.9125 51.4239 24.9765 50.5919 24.2485C49.7599 23.5205 48.7069 22.7535 47.4329 21.9475C46.4969 21.3495 45.6129 20.7515 44.7809 20.1535C43.9749 19.5555 43.3119 18.8795 42.7919 18.1255C42.2979 17.3715 42.0509 16.4615 42.0509 15.3955C42.0509 14.2255 42.3109 13.2765 42.8309 12.5485C43.3769 11.7945 44.0919 11.2485 44.9759 10.9105C45.8599 10.5465 46.8089 10.3645 47.8229 10.3645Z" fill="#C0BAB9"/>
<path d="M64.4082 0.458496V15.0445C65.0842 13.2765 66.0202 12.0545 67.2162 11.3785C68.4382 10.7025 69.7122 10.3645 71.0382 10.3645C72.0262 10.3645 72.8452 10.4945 73.4952 10.7545C74.1712 11.0145 74.7302 11.3785 75.1722 11.8465C75.6662 12.3665 76.0172 13.0165 76.2252 13.7965C76.4332 14.5765 76.5372 15.6295 76.5372 16.9555V27.3685C76.5372 28.4605 76.7582 29.2015 77.2002 29.5915C77.6682 29.9815 78.4352 30.1765 79.5012 30.1765V30.9955C79.0592 30.9695 78.3832 30.9435 77.4732 30.9175C76.5632 30.8655 75.6792 30.8395 74.8212 30.8395C73.9632 30.8395 73.1182 30.8655 72.2862 30.9175C71.4802 30.9435 70.8692 30.9695 70.4532 30.9955V30.1765C71.3892 30.1765 72.0522 29.9815 72.4422 29.5915C72.8322 29.2015 73.0272 28.4605 73.0272 27.3685V16.0975C73.0272 15.2915 72.9622 14.5505 72.8322 13.8745C72.7022 13.1985 72.4032 12.6525 71.9352 12.2365C71.4932 11.8205 70.8042 11.6125 69.8682 11.6125C68.2822 11.6125 66.9692 12.2755 65.9292 13.6015C64.9152 14.9015 64.4082 16.5915 64.4082 18.6715V27.3685C64.4082 28.4605 64.6032 29.2015 64.9932 29.5915C65.3832 29.9815 66.0462 30.1765 66.9822 30.1765V30.9955C66.5662 30.9695 65.9422 30.9435 65.1102 30.9175C64.3042 30.8655 63.4722 30.8395 62.6142 30.8395C61.7562 30.8395 60.8722 30.8655 59.9622 30.9175C59.0522 30.9435 58.3762 30.9695 57.9342 30.9955V30.1765C59.0002 30.1765 59.7542 29.9815 60.1962 29.5915C60.6642 29.2015 60.8982 28.4605 60.8982 27.3685V5.1385C60.8982 3.9685 60.6902 3.1105 60.2742 2.5645C59.8582 1.9925 59.0782 1.7065 57.9342 1.7065V0.887498C58.7662 0.965497 59.5722 1.0045 60.3522 1.0045C61.1062 1.0045 61.8212 0.965497 62.4972 0.887498C63.1992 0.783497 63.8362 0.640497 64.4082 0.458496Z" fill="#C0BAB9"/>
<path d="M85.659 1.1605C86.335 1.1605 86.92 1.4075 87.414 1.9015C87.908 2.3955 88.155 2.9805 88.155 3.6565C88.155 4.3325 87.908 4.9175 87.414 5.4115C86.92 5.9055 86.335 6.1525 85.659 6.1525C84.983 6.1525 84.398 5.9055 83.904 5.4115C83.41 4.9175 83.163 4.3325 83.163 3.6565C83.163 2.9805 83.41 2.3955 83.904 1.9015C84.398 1.4075 84.983 1.1605 85.659 1.1605ZM87.687 10.4815V27.3685C87.687 28.4605 87.908 29.2015 88.35 29.5915C88.818 29.9815 89.585 30.1765 90.651 30.1765V30.9955C90.209 30.9695 89.533 30.9435 88.623 30.9175C87.739 30.8655 86.842 30.8395 85.932 30.8395C85.048 30.8395 84.151 30.8655 83.241 30.9175C82.331 30.9435 81.655 30.9695 81.213 30.9955V30.1765C82.279 30.1765 83.033 29.9815 83.475 29.5915C83.943 29.2015 84.177 28.4605 84.177 27.3685V15.1615C84.177 13.9915 83.969 13.1335 83.553 12.5875C83.137 12.0155 82.357 11.7295 81.213 11.7295V10.9105C82.045 10.9885 82.851 11.0275 83.631 11.0275C84.385 11.0275 85.1 10.9885 85.776 10.9105C86.478 10.8065 87.115 10.6635 87.687 10.4815Z" fill="#C0BAB9"/>
<path d="M102.194 10.3645C103.858 10.3645 105.353 10.7285 106.679 11.4565C108.005 12.1845 109.058 13.3285 109.838 14.8885C110.644 16.4485 111.047 18.4765 111.047 20.9725C111.047 23.4685 110.644 25.4965 109.838 27.0565C109.058 28.5905 108.005 29.7215 106.679 30.4495C105.353 31.1775 103.858 31.5415 102.194 31.5415C100.556 31.5415 99.0608 31.1775 97.7088 30.4495C96.3828 29.7215 95.3167 28.5905 94.5107 27.0565C93.7308 25.4965 93.3408 23.4685 93.3408 20.9725C93.3408 18.4765 93.7308 16.4485 94.5107 14.8885C95.3167 13.3285 96.3828 12.1845 97.7088 11.4565C99.0608 10.7285 100.556 10.3645 102.194 10.3645ZM102.194 11.1445C100.712 11.1445 99.4898 11.9115 98.5278 13.4455C97.5918 14.9795 97.1237 17.4885 97.1237 20.9725C97.1237 24.4565 97.5918 26.9655 98.5278 28.4995C99.4898 30.0075 100.712 30.7615 102.194 30.7615C103.676 30.7615 104.885 30.0075 105.821 28.4995C106.783 26.9655 107.264 24.4565 107.264 20.9725C107.264 17.4885 106.783 14.9795 105.821 13.4455C104.885 11.9115 103.676 11.1445 102.194 11.1445Z" fill="#C0BAB9"/>
<path d="M127.109 10.3645C128.097 10.3645 128.916 10.4945 129.566 10.7545C130.242 11.0145 130.801 11.3785 131.243 11.8465C131.737 12.3665 132.088 13.0165 132.296 13.7965C132.504 14.5765 132.608 15.6295 132.608 16.9555V27.3685C132.608 28.4605 132.829 29.2015 133.271 29.5915C133.739 29.9815 134.506 30.1765 135.572 30.1765V30.9955C135.13 30.9695 134.454 30.9435 133.544 30.9175C132.634 30.8655 131.75 30.8395 130.892 30.8395C130.034 30.8395 129.189 30.8655 128.357 30.9175C127.551 30.9435 126.94 30.9695 126.524 30.9955V30.1765C127.46 30.1765 128.123 29.9815 128.513 29.5915C128.903 29.2015 129.098 28.4605 129.098 27.3685V16.0975C129.098 15.2915 129.033 14.5505 128.903 13.8745C128.773 13.1985 128.474 12.6525 128.006 12.2365C127.564 11.8205 126.875 11.6125 125.939 11.6125C124.301 11.6125 122.975 12.3015 121.961 13.6795C120.973 15.0315 120.479 16.7085 120.479 18.7105V27.3685C120.479 28.4605 120.674 29.2015 121.064 29.5915C121.454 29.9815 122.117 30.1765 123.053 30.1765V30.9955C122.637 30.9695 122.013 30.9435 121.181 30.9175C120.375 30.8655 119.543 30.8395 118.685 30.8395C117.827 30.8395 116.943 30.8655 116.033 30.9175C115.123 30.9435 114.447 30.9695 114.005 30.9955V30.1765C115.071 30.1765 115.825 29.9815 116.267 29.5915C116.735 29.2015 116.969 28.4605 116.969 27.3685V15.1615C116.969 13.9915 116.761 13.1335 116.345 12.5875C115.929 12.0155 115.149 11.7295 114.005 11.7295V10.9105C114.837 10.9885 115.643 11.0275 116.423 11.0275C117.177 11.0275 117.892 10.9885 118.568 10.9105C119.27 10.8065 119.907 10.6635 120.479 10.4815V15.0835C121.155 13.3155 122.091 12.0935 123.287 11.4175C124.509 10.7155 125.783 10.3645 127.109 10.3645Z" fill="#C0BAB9"/>
<path d="M168.475 3.3835V4.1635C167.591 4.1895 166.915 4.2935 166.447 4.4755C166.005 4.6315 165.706 4.9435 165.55 5.4115C165.394 5.8535 165.316 6.5555 165.316 7.5175V26.8615C165.316 27.7975 165.394 28.4995 165.55 28.9675C165.706 29.4355 166.005 29.7475 166.447 29.9035C166.915 30.0595 167.591 30.1635 168.475 30.2155V30.9955C167.877 30.9435 167.123 30.9175 166.213 30.9175C165.329 30.8915 164.432 30.8785 163.522 30.8785C162.508 30.8785 161.559 30.8915 160.675 30.9175C159.791 30.9175 159.076 30.9435 158.53 30.9955V30.2155C159.414 30.1635 160.077 30.0595 160.519 29.9035C160.987 29.7475 161.299 29.4355 161.455 28.9675C161.611 28.4995 161.689 27.7975 161.689 26.8615V5.4115L161.845 5.5285L152.29 31.1905H151.666L141.838 5.8795V26.4715C141.838 27.4075 141.916 28.1485 142.072 28.6945C142.254 29.2145 142.592 29.5915 143.086 29.8255C143.606 30.0335 144.373 30.1635 145.387 30.2155V30.9955C144.919 30.9435 144.308 30.9175 143.554 30.9175C142.8 30.8915 142.085 30.8785 141.409 30.8785C140.759 30.8785 140.096 30.8915 139.42 30.9175C138.77 30.9175 138.224 30.9435 137.782 30.9955V30.2155C138.666 30.1635 139.329 30.0335 139.771 29.8255C140.239 29.5915 140.551 29.2145 140.707 28.6945C140.863 28.1485 140.941 27.4075 140.941 26.4715V7.5175C140.941 6.5555 140.863 5.8535 140.707 5.4115C140.551 4.9435 140.239 4.6315 139.771 4.4755C139.329 4.2935 138.666 4.1895 137.782 4.1635V3.3835C138.224 3.4095 138.77 3.4355 139.42 3.4615C140.096 3.4875 140.759 3.5005 141.409 3.5005C141.981 3.5005 142.566 3.4875 143.164 3.4615C143.788 3.4355 144.308 3.4095 144.724 3.3835L153.577 26.7055L152.914 27.0175L161.689 3.5005C162.001 3.5005 162.3 3.5005 162.586 3.5005C162.898 3.5005 163.21 3.5005 163.522 3.5005C164.432 3.5005 165.329 3.4875 166.213 3.4615C167.123 3.4355 167.877 3.4095 168.475 3.3835Z" fill="#C0BAB9"/>
<path d="M176.284 31.2685C174.594 31.2685 173.359 30.8525 172.579 30.0205C171.825 29.1625 171.448 28.0315 171.448 26.6275C171.448 25.5355 171.708 24.6385 172.228 23.9365C172.774 23.2085 173.463 22.6235 174.295 22.1815C175.127 21.7135 175.998 21.3235 176.908 21.0115C177.844 20.6735 178.728 20.3485 179.56 20.0365C180.392 19.7245 181.068 19.3735 181.588 18.9835C182.134 18.5935 182.407 18.0995 182.407 17.5015V15.0835C182.407 13.9915 182.238 13.1595 181.9 12.5875C181.588 12.0155 181.159 11.6385 180.613 11.4565C180.067 11.2485 179.456 11.1445 178.78 11.1445C178.13 11.1445 177.428 11.2355 176.674 11.4175C175.946 11.5995 175.361 11.9765 174.919 12.5485C175.413 12.6525 175.842 12.9125 176.206 13.3285C176.57 13.7445 176.752 14.2775 176.752 14.9275C176.752 15.5775 176.544 16.0975 176.128 16.4875C175.712 16.8515 175.179 17.0335 174.529 17.0335C173.775 17.0335 173.216 16.7995 172.852 16.3315C172.514 15.8375 172.345 15.2915 172.345 14.6935C172.345 14.0175 172.514 13.4715 172.852 13.0555C173.19 12.6395 173.619 12.2495 174.139 11.8855C174.737 11.4695 175.504 11.1185 176.44 10.8325C177.402 10.5205 178.481 10.3645 179.677 10.3645C180.743 10.3645 181.653 10.4945 182.407 10.7545C183.161 10.9885 183.785 11.3395 184.279 11.8075C184.955 12.4315 185.397 13.1985 185.605 14.1085C185.813 14.9925 185.917 16.0585 185.917 17.3065V28.1485C185.917 28.7725 186.008 29.2405 186.19 29.5525C186.372 29.8385 186.684 29.9815 187.126 29.9815C187.49 29.9815 187.802 29.9035 188.062 29.7475C188.348 29.5915 188.621 29.3965 188.881 29.1625L189.31 29.8255C188.764 30.2415 188.244 30.5925 187.75 30.8785C187.256 31.1385 186.593 31.2685 185.761 31.2685C184.409 31.2685 183.512 30.9175 183.07 30.2155C182.628 29.5135 182.407 28.7075 182.407 27.7975C181.575 29.1755 180.626 30.0985 179.56 30.5665C178.52 31.0345 177.428 31.2685 176.284 31.2685ZM178 29.7085C178.78 29.7085 179.547 29.4875 180.301 29.0455C181.055 28.5775 181.757 27.8105 182.407 26.7445V19.1005C182.017 19.6725 181.406 20.1275 180.574 20.4655C179.768 20.8035 178.923 21.1805 178.039 21.5965C177.181 21.9865 176.44 22.5325 175.816 23.2345C175.192 23.9105 174.88 24.8855 174.88 26.1595C174.88 27.3555 175.179 28.2525 175.777 28.8505C176.375 29.4225 177.116 29.7085 178 29.7085Z" fill="#C0BAB9"/>
<path d="M197.619 10.9105V11.7295C197.125 11.7295 196.709 11.8465 196.371 12.0805C196.033 12.3145 195.994 12.6395 196.254 13.0555L206.667 28.2265C207.109 28.8765 207.499 29.3445 207.837 29.6305C208.175 29.8905 208.591 30.0725 209.085 30.1765V30.9955C208.825 30.9695 208.422 30.9435 207.876 30.9175C207.356 30.8655 206.836 30.8395 206.316 30.8395C205.51 30.8395 204.639 30.8655 203.703 30.9175C202.793 30.9435 202.13 30.9695 201.714 30.9955V30.1765C202.234 30.1765 202.663 30.0595 203.001 29.8255C203.339 29.5655 203.365 29.2405 203.079 28.8505L192.666 13.6795C192.146 12.9255 191.73 12.4315 191.418 12.1975C191.106 11.9375 190.716 11.7815 190.248 11.7295V10.9105C190.508 10.9365 190.911 10.9755 191.457 11.0275C192.003 11.0535 192.523 11.0665 193.017 11.0665C193.849 11.0665 194.72 11.0535 195.63 11.0275C196.54 10.9755 197.203 10.9365 197.619 10.9105ZM198.672 20.8165C198.672 20.8165 198.724 20.9985 198.828 21.3625C198.958 21.7005 199.023 21.8695 199.023 21.8695L195.786 26.0815C195.11 26.9655 194.746 27.7065 194.694 28.3045C194.668 28.9025 194.915 29.3575 195.435 29.6695C195.955 29.9555 196.67 30.1375 197.58 30.2155V30.9955C197.138 30.9695 196.644 30.9565 196.098 30.9565C195.552 30.9305 195.019 30.9175 194.499 30.9175C194.005 30.8915 193.55 30.8785 193.134 30.8785C191.99 30.8785 191.002 30.9175 190.17 30.9955V30.2155C190.664 30.1635 191.171 29.9425 191.691 29.5525C192.237 29.1365 192.874 28.4475 193.602 27.4855L198.672 20.8165ZM208.305 10.9105V11.6905C207.811 11.7425 207.265 12.0025 206.667 12.4705C206.095 12.9125 205.497 13.5625 204.873 14.4205L200.388 20.6215C200.388 20.6215 200.336 20.4525 200.232 20.1145C200.128 19.7765 200.076 19.6075 200.076 19.6075L203.118 15.3565C203.976 14.1345 204.353 13.2505 204.249 12.7045C204.171 12.1325 203.443 11.7945 202.065 11.6905V10.9105C202.741 10.9365 203.3 10.9625 203.742 10.9885C204.21 11.0145 204.743 11.0275 205.341 11.0275C206.511 11.0275 207.499 10.9885 208.305 10.9105Z" fill="#C0BAB9"/>
</svg>
